<svg width="2037" height="1104" viewBox="0 0 2037 1104" fill="none" xmlns="http://www.w3.org/2000/svg">
<path d="M364 353.8C364.8 359.533 365.6 367.867 366.4 378.8L366.8 389.2C366.8 408.533 369.333 425.8 374.4 441C375.067 443.133 375.4 445.867 375.4 449.2C375.4 451.067 375.267 453.6 375 456.8C374.867 458.933 374.067 460.6 372.6 461.8C371.133 463.133 369.267 463.8 367 463.8C366.733 463.8 366 463.667 364.8 463.4C361.467 462.6 358.933 461.133 357.2 459C355.467 456.733 354.6 454 354.6 450.8C354.6 449.733 354.667 448.933 354.8 448.4C354.8 447.6 354.8 446.467 354.8 445C354.8 442.6 354.667 440.4 354.4 438.4C353.333 433.2 351.667 426.267 349.4 417.6C348.6 414 346.933 412.2 344.4 412.2C343.467 412.2 342.4 412.4 341.2 412.8C337.067 414 333.4 415.133 330.2 416.2C327.133 417.267 324.4 418.133 322 418.8L312.4 421.6C306.933 423.2 301.867 424.467 297.2 425.4C292.267 426.467 288.667 429.2 286.4 433.6C284.267 437.6 281.2 443 277.2 449.8C274.667 454.333 271.333 456.6 267.2 456.6C265.2 456.6 263.2 456.133 261.2 455.2C259.333 454.133 257.733 452.8 256.4 451.2C254.4 448.933 253.4 446.733 253.4 444.6C253.4 443.133 253.8 441.6 254.6 440L268.4 412C283.6 381.067 292.667 362.533 295.6 356.4C304 340.133 315.4 328.933 329.8 322.8C332.867 321.333 336 320.6 339.2 320.6C343.2 320.6 346.867 321.667 350.2 323.8C353.667 325.8 356.333 328.667 358.2 332.4C360.867 337.867 362.8 345 364 353.8ZM299.4 404.4C317.667 401.2 333.2 398.6 346 396.6C345.733 383.8 345.333 373.733 344.8 366.4C344.4 358.933 343.467 351.467 342 344C334.933 344.8 329.6 348.267 326 354.4C319.733 364.267 313.733 374.467 308 385C307.067 386.733 305.333 390.6 302.8 396.6L299.4 404.4ZM421.945 362.4C421.412 357.6 422.079 353.267 423.945 349.4C425.945 345.4 428.745 341.533 432.345 337.8L444.545 336.8C446.412 336.533 447.545 336.4 447.945 336.4C449.945 336.4 452.479 338.867 455.545 343.8C455.812 344.6 456.079 345.6 456.345 346.8C456.612 347.867 457.012 348.733 457.545 349.4L480.745 381.6C484.212 386 487.612 390.6 490.945 395.4L494.345 384.4C498.612 370.4 502.479 359.067 505.945 350.4C509.545 341.6 514.212 333.267 519.945 325.4L529.545 326.8C532.079 328.8 532.945 331.467 532.145 334.8C530.945 339.6 529.679 343.2 528.345 345.6C525.145 353.733 522.479 362 520.345 370.4C518.212 378.667 515.812 389.133 513.145 401.8C512.745 403.533 512.212 406.133 511.545 409.6C510.479 414.933 508.412 418.933 505.345 421.6C502.279 424.133 498.079 425.533 492.745 425.8C487.412 426.067 482.812 423.867 478.945 419.2C474.945 414.4 469.945 407.933 463.945 399.8L459.945 394.4C456.345 389.6 450.879 382.533 443.545 373.2L441.745 381.8C439.745 391.4 438.545 398.933 438.145 404.4L436.945 428.6C436.812 431.267 436.679 434.667 436.545 438.8C436.412 442.8 436.145 447.533 435.745 453C435.612 457 434.212 460.467 431.545 463.4C429.012 466.333 425.812 468.333 421.945 469.4C419.945 469.933 417.479 469.4 414.545 467.8C411.745 466.333 410.079 464.6 409.545 462.6C408.612 459.133 408.145 456.067 408.145 453.4C408.145 451 408.479 448.867 409.145 447C410.345 443.8 411.145 438.733 411.545 431.8C411.812 427.533 412.145 424.333 412.545 422.2C414.279 409.933 416.945 393 420.545 371.4C420.679 370.333 420.945 368.933 421.345 367.2C421.879 365.333 422.079 363.733 421.945 362.4ZM584.514 365.4C585.314 362.333 586.514 356.533 588.114 348L588.914 343.8L584.114 342.6C579.581 341.4 575.647 340.133 572.314 338.8C571.381 338.267 570.514 337.333 569.714 336C568.914 334.667 568.581 333.533 568.714 332.6C568.714 331.8 569.247 330.933 570.314 330C571.514 328.933 572.647 328.267 573.714 328L578.114 327C585.581 325.133 591.181 324.2 594.914 324.2C596.247 324.2 597.247 324.267 597.914 324.4C602.447 324.667 607.514 327.8 613.114 333.8C613.781 334.467 614.114 335.667 614.114 337.4C614.114 339.4 613.714 341.867 612.914 344.8C610.781 352 607.447 362.8 602.914 377.2L592.714 409.6C591.914 412.4 590.447 418.8 588.314 428.8L586.714 436C588.981 436 592.114 435.867 596.114 435.6C601.181 435.333 604.914 435.2 607.314 435.2L610.314 435C612.314 435 613.847 435.333 614.914 436C615.981 436.533 616.847 437.4 617.514 438.6C618.314 439.667 618.781 440.733 618.914 441.8V442C618.914 442.933 618.581 444 617.914 445.2C617.247 446.267 616.514 446.867 615.714 447C613.581 447.667 611.647 448.333 609.914 449C591.381 455.267 577.047 459.667 566.914 462.2C565.581 462.6 564.247 462.8 562.914 462.8C558.647 462.8 554.781 461.267 551.314 458.2C547.981 455 545.847 451.133 544.914 446.6C546.114 445.133 547.381 444.267 548.714 444C550.181 443.6 552.381 443.4 555.314 443.4C559.047 443.4 561.581 442.733 562.914 441.4C564.247 440.067 565.514 437.267 566.714 433L575.714 399.2C579.181 386.133 582.114 374.867 584.514 365.4ZM772.259 367.6C770.526 368.933 767.993 371.133 764.659 374.2L760.259 378L769.259 381.4C775.526 383.533 779.793 385.133 782.059 386.2C788.193 388.867 792.526 391.933 795.059 395.4C797.726 398.733 799.059 402.867 799.059 407.8C799.059 411.267 798.459 415.333 797.259 420C794.459 430.533 789.659 439.533 782.859 447C776.059 454.467 767.459 460.333 757.059 464.6C750.793 467.133 744.193 468.867 737.259 469.8C730.459 470.867 722.926 471.4 714.659 471.4C711.459 471.4 708.459 470.733 705.659 469.4C702.859 468.2 700.193 466.8 697.659 465.2C695.126 463.733 693.326 462.667 692.259 462C690.793 461.067 690.059 460.067 690.059 459C690.059 458.067 690.659 457 691.859 455.8C693.059 454.6 693.926 453.6 694.459 452.8C690.726 451.2 688.859 448.8 688.859 445.6C688.859 444.133 688.993 443 689.259 442.2C693.526 424.2 697.726 405.467 701.859 386L706.259 366C706.526 364.933 706.726 363.733 706.859 362.4C706.993 360.933 707.059 359.933 707.059 359.4C707.059 357.667 707.126 356.333 707.259 355.4C707.526 353.4 708.059 351.067 708.859 348.4C709.659 348.267 710.859 348.2 712.459 348.2C715.126 348.2 717.593 348.667 719.859 349.6C722.126 350.4 724.659 351.667 727.459 353.4C729.726 354.867 730.859 357.067 730.859 360L730.659 365.8C730.659 368.2 731.126 370.2 732.059 371.8C745.926 361.933 758.326 349.933 769.259 335.8C767.793 335.667 765.793 335.6 763.259 335.6L750.859 334.8L742.459 334.4C733.926 334.133 726.926 333.533 721.459 332.6C718.526 332.2 715.526 331.333 712.459 330C709.393 328.533 707.526 327.667 706.859 327.4L702.259 325.4C702.126 324.733 702.059 323.8 702.059 322.6C702.059 320.6 702.526 319.133 703.459 318.2C704.393 317.267 705.793 316.667 707.659 316.4C708.593 316.267 709.793 316.133 711.259 316C712.859 315.733 714.259 315.667 715.459 315.8L731.859 317C748.926 318.067 761.793 319.133 770.459 320.2C779.793 321.267 786.926 325.4 791.859 332.6C793.326 334.733 794.059 336.667 794.059 338.4C794.059 340 793.459 341.733 792.259 343.6C788.659 349.2 785.393 353.933 782.459 357.8C779.526 361.533 776.126 364.8 772.259 367.6ZM711.459 439C710.793 442.333 710.193 444.867 709.659 446.6C709.126 448.333 708.126 449.933 706.659 451.4C705.326 452.867 703.326 453.933 700.659 454.6L702.059 456.8L710.059 455.8C715.793 455.4 721.126 454.733 726.059 453.8C738.859 451.8 749.059 447 756.659 439.4C766.393 429.933 772.993 419.2 776.459 407.2C777.126 404.933 777.459 403.267 777.459 402.2C777.459 400.733 776.926 399.533 775.859 398.6C774.793 397.667 772.926 396.733 770.259 395.8C765.993 394.2 761.859 393.4 757.859 393.4C755.326 393.4 752.993 393.667 750.859 394.2C742.726 396.467 732.859 398.933 721.259 401.6C720.593 404.267 719.459 408.267 717.859 413.6C714.526 425.333 712.393 433.8 711.459 439ZM831.133 360.4C836.333 351.733 844.399 344.133 855.333 337.6C863.999 332.4 874.066 329.8 885.533 329.8C893.666 329.8 901.533 331.2 909.133 334C916.733 336.667 922.999 340.467 927.933 345.4C929.666 347.133 931.533 348.8 933.533 350.4C936.599 353.067 938.399 354.733 938.933 355.4C945.599 362.467 948.933 370.267 948.933 378.8C948.933 385.467 946.799 392.267 942.533 399.2C936.933 408.4 931.133 416.467 925.133 423.4C919.133 430.333 912.399 436.267 904.933 441.2C892.266 449.6 880.133 453.8 868.533 453.8C865.066 453.8 861.599 453.4 858.133 452.6C846.533 450.067 837.133 444.667 829.933 436.4C822.733 428 819.133 418.467 819.133 407.8C819.133 399.667 821.399 391.533 825.933 383.4C826.199 382.733 826.733 382.067 827.533 381.4C828.466 380.733 829.199 380.2 829.733 379.8L834.333 382L838.733 384.2C842.866 386.467 845.533 388.333 846.733 389.8C848.066 391.267 848.733 393.333 848.733 396C848.733 397.867 848.533 400.4 848.133 403.6C847.999 404.8 847.933 406.533 847.933 408.8C847.933 413.733 848.533 419.667 849.733 426.6C849.999 428.6 850.799 430.133 852.133 431.2C853.599 432.267 855.399 432.8 857.533 432.8C858.599 432.8 859.466 432.733 860.133 432.6C866.399 431.4 871.733 430 876.133 428.4C880.666 426.8 884.733 424.4 888.333 421.2C894.999 415.467 900.799 409.933 905.733 404.6C910.666 399.267 914.999 393.533 918.733 387.4C921.266 383.133 922.533 379 922.533 375C922.533 371.667 921.799 368.4 920.333 365.2C918.866 362 916.733 358.4 913.933 354.4C909.266 348 903.199 344.8 895.733 344.8C893.066 344.8 890.333 345.2 887.533 346C886.599 346.267 882.333 347.667 874.733 350.2C873.933 350.467 873.066 350.733 872.133 351C871.333 351.267 870.466 351.533 869.533 351.8L846.733 358.4C843.799 359.333 839.266 360.6 833.133 362.2L831.133 360.4ZM986.036 334.4C986.169 334.533 984.503 333.067 981.036 330C978.636 327.867 976.836 326.333 975.636 325.4C976.169 321.8 977.503 319.267 979.636 317.8C981.769 316.333 984.569 315.2 988.036 314.4C991.636 313.467 995.503 313 999.636 313C1003.64 313 1007.7 313.4 1011.84 314.2C1023.7 316.333 1034.17 318.8 1043.24 321.6C1052.3 324.4 1060.77 328.333 1068.64 333.4C1074.1 336.733 1078.7 340.667 1082.44 345.2C1087.9 352.267 1090.64 359.467 1090.64 366.8C1090.64 373.067 1088.57 379.533 1084.44 386.2C1068.7 411.133 1052.5 430.8 1035.84 445.2C1025.7 454.133 1014.5 461.467 1002.24 467.2C997.703 469.467 992.969 470.6 988.036 470.6C982.169 470.6 976.503 468.933 971.036 465.6C969.036 464.267 967.503 462.867 966.436 461.4C965.369 460.067 964.836 458.467 964.836 456.6L965.036 454.8L966.436 444.4C968.036 432.133 969.503 423 970.836 417L971.836 412.6C975.836 395.267 978.836 381.333 980.836 370.8C982.836 360.133 984.303 349.2 985.236 338L986.036 334.4ZM1012.44 332C1010.84 331.867 1008.7 332 1006.04 332.4L1001.64 333C1004.84 335.667 1007.17 338 1008.64 340C1010.1 342 1010.84 344.133 1010.84 346.4C1010.84 346.933 1010.7 347.867 1010.44 349.2C1008.7 356.933 1006.37 366.467 1003.44 377.8L996.236 406.6C993.036 419.667 990.236 431.8 987.836 443C987.436 444.467 987.169 446.133 987.036 448C987.036 449.733 987.036 451 987.036 451.8C988.236 452.333 988.903 452.6 989.036 452.6L991.636 451.6C1011.64 441.867 1028.7 428.267 1042.84 410.8C1048.57 403.467 1053.37 396.533 1057.24 390C1061.24 383.467 1064.24 376.6 1066.24 369.4C1066.77 367.667 1067.04 365.6 1067.04 363.2C1067.04 359.067 1065.97 355.333 1063.84 352C1061.84 348.667 1059.04 346.133 1055.44 344.4C1042.1 338.4 1027.77 334.267 1012.44 332ZM1243.14 389.4C1243.54 397.533 1241.74 406.133 1237.74 415.2C1233.87 424.267 1228.41 432.467 1221.34 439.8C1214.41 447.133 1206.74 452.4 1198.34 455.6C1189.94 458.8 1181.67 460.4 1173.54 460.4C1165.14 460.4 1157.14 458.733 1149.54 455.4C1142.07 451.933 1135.21 446.867 1128.94 440.2C1124.81 435.933 1121.34 430.667 1118.54 424.4C1115.74 418 1113.67 411.4 1112.34 404.6C1111.14 398.333 1110.54 392.2 1110.54 386.2C1110.54 372.467 1113.67 360.333 1119.94 349.8C1123.81 343.267 1128.21 338.267 1133.14 334.8C1138.21 331.2 1144.14 329.4 1150.94 329.4C1152.01 329.4 1153.87 329.533 1156.54 329.8C1162.27 330.6 1169.34 331.133 1177.74 331.4C1186.01 331.667 1192.14 332.067 1196.14 332.6C1203.47 333.4 1209.94 336 1215.54 340.4C1221.27 344.8 1226.54 350.467 1231.34 357.4C1233.34 360.333 1235.07 363.4 1236.54 366.6C1238.14 369.8 1239.87 373.733 1241.74 378.4L1245.94 388.2L1243.14 389.4ZM1177.74 438C1185.07 435.467 1191.74 431.4 1197.74 425.8C1203.74 420.2 1208.41 413.667 1211.74 406.2C1215.07 398.733 1216.54 391.133 1216.14 383.4C1215.34 370.733 1213.67 361.4 1211.14 355.4C1208.61 349.4 1204.54 345.2 1198.94 342.8C1193.47 340.4 1185.07 338.8 1173.74 338C1172.54 337.867 1171.27 337.8 1169.94 337.8L1156.74 352C1153.01 356.267 1150.47 359.667 1149.14 362.2C1143.14 373.267 1140.14 386.533 1140.14 402C1140.14 407.2 1140.27 411.133 1140.54 413.8C1141.07 422.2 1143.61 428.733 1148.14 433.4C1152.67 437.933 1158.47 440.2 1165.54 440.2C1169.01 440.2 1173.07 439.467 1177.74 438ZM1390.81 450.4C1393.21 450.533 1395.07 451.2 1396.41 452.4C1397.74 453.467 1398.67 455.4 1399.21 458.2C1394.41 460.067 1389.41 461 1384.21 461C1380.87 461 1377.61 460.6 1374.41 459.8C1363.07 457 1353.01 453.533 1344.21 449.4C1335.54 445.267 1327.74 439.667 1320.81 432.6L1317.81 429.6C1313.54 425.867 1310.54 422.467 1308.81 419.4C1307.21 416.467 1304.94 415 1302.01 415C1300.41 415 1298.94 415.467 1297.61 416.4C1296.27 417.333 1295.27 418.6 1294.61 420.2C1291.81 426.867 1290.07 431 1289.41 432.6C1288.47 434.733 1287.41 437.267 1286.21 440.2C1285.01 443.133 1283.54 446.467 1281.81 450.2C1280.47 451 1279.67 451.4 1279.41 451.4C1274.34 451.133 1270.81 450.533 1268.81 449.6C1266.94 448.667 1266.01 446.933 1266.01 444.4C1266.01 442.267 1266.61 439.2 1267.81 435.2C1273.01 418 1278.21 404.4 1283.41 394.4C1285.01 391.467 1286.54 388.133 1288.01 384.4C1289.47 380.533 1290.81 376.733 1292.01 373C1294.27 366.867 1295.74 363 1296.41 361.4L1322.41 298.4C1324.27 298.133 1325.67 298 1326.61 298C1331.67 298 1336.41 299.667 1340.81 303C1342.94 304.6 1344.01 306.4 1344.01 308.4C1344.01 309.733 1343.67 311.067 1343.01 312.4C1335.14 329.2 1326.27 348.467 1316.41 370.2C1314.01 375.8 1312.61 380.4 1312.21 384L1331.81 371.4L1342.41 364.2C1356.27 354.733 1365.81 348.333 1371.01 345C1377.27 340.867 1383.34 338.8 1389.21 338.8C1393.74 338.8 1398.27 340.067 1402.81 342.6C1403.74 343.133 1405.54 344.467 1408.21 346.6C1408.07 346.467 1409.21 347.4 1411.61 349.4C1411.07 349.8 1409.94 350.867 1408.21 352.6C1405.94 354.6 1404.27 355.733 1403.21 356C1398.41 356.933 1393.94 358.467 1389.81 360.6C1385.81 362.733 1380.67 365.733 1374.41 369.6C1356.01 381.2 1340.54 391.267 1328.01 399.8C1326.01 401.133 1324.61 402.267 1323.81 403.2C1323.01 404 1322.61 404.867 1322.61 405.8C1322.61 407.133 1323.41 409.4 1325.01 412.6C1334.74 432.867 1351.54 444.867 1375.41 448.6C1380.34 449.533 1385.47 450.133 1390.81 450.4ZM1457.83 456.6C1455.03 457.4 1452.43 457.8 1450.03 457.8C1443.63 457.8 1437.5 455 1431.63 449.4C1432.43 446.467 1433.77 444.333 1435.63 443C1437.5 441.533 1439.37 440.4 1441.23 439.6C1443.1 438.8 1444.37 438.267 1445.03 438C1452.23 434.933 1459.77 432.267 1467.63 430C1470.97 428.933 1473.03 426.8 1473.83 423.6C1476.23 415.467 1478.1 407.467 1479.43 399.6C1480.77 391.6 1482.37 380.867 1484.23 367.4L1485.03 361.2C1485.17 360.8 1485.23 360.2 1485.23 359.4C1485.23 356.6 1483.83 354.667 1481.03 353.6C1480.1 353.2 1479.03 352.533 1477.83 351.6C1476.63 350.533 1475.7 349.733 1475.03 349.2L1470.23 351.6C1466.37 353.333 1461.97 355.467 1457.03 358C1455.3 358.933 1453.5 359.4 1451.63 359.4C1449.63 359.4 1447.5 358.933 1445.23 358C1443.1 356.933 1441.83 356.333 1441.43 356.2C1440.23 355.667 1439.23 354.867 1438.43 353.8C1437.77 352.733 1437.43 351.6 1437.43 350.4C1437.43 348.8 1437.97 347.267 1439.03 345.8C1440.5 343.667 1442.77 341.467 1445.83 339.2C1457.83 330.267 1470.5 325.8 1483.83 325.8C1489.97 325.8 1496.03 326.667 1502.03 328.4C1507.63 330.133 1512.5 331.6 1516.63 332.8C1520.9 333.867 1524.43 334.8 1527.23 335.6L1539.83 339.2C1540.1 339.2 1540.63 339.267 1541.43 339.4C1542.37 339.533 1543.03 339.8 1543.43 340.2C1544.23 340.867 1545.03 341.8 1545.83 343C1546.77 344.067 1547.5 344.933 1548.03 345.6C1547.37 346.133 1546.43 346.933 1545.23 348C1544.17 349.067 1543.17 349.6 1542.23 349.6C1541.17 349.733 1539.5 349.8 1537.23 349.8C1535.5 349.8 1532.9 349.667 1529.43 349.4L1525.03 349.2L1510.83 347.6L1509.83 354.8C1508.1 367.333 1506.57 377.267 1505.23 384.6C1504.17 391 1502.43 399.6 1500.03 410.4L1497.63 422.2C1506.7 421 1512.83 420.2 1516.03 419.8C1523.23 419 1528.63 418.6 1532.23 418.6C1536.63 418.6 1540.3 419.2 1543.23 420.4C1546.17 421.6 1548.23 424.067 1549.43 427.8C1548.1 429.533 1546.57 430.8 1544.83 431.6C1543.23 432.4 1541.57 433 1539.83 433.4C1538.23 433.8 1537.23 434.067 1536.83 434.2L1533.03 435.4C1525.03 437.8 1519.57 439.2 1516.63 439.6C1510.37 440.533 1504.23 441.867 1498.23 443.6C1492.37 445.333 1485.03 447.667 1476.23 450.6C1470.5 452.733 1464.37 454.733 1457.83 456.6ZM1580.92 449.2C1577.99 449.2 1575.52 448.467 1573.52 447C1571.66 445.533 1570.32 442.8 1569.52 438.8C1573.79 439.2 1576.92 438.267 1578.92 436C1581.06 433.733 1582.99 430.333 1584.72 425.8L1588.92 413.8C1589.72 411.667 1591.72 406.067 1594.92 397C1598.26 387.933 1601.66 379.467 1605.12 371.6C1609.66 360.933 1616.59 348 1625.92 332.8C1628.32 329.067 1631.19 326.267 1634.52 324.4C1637.86 322.4 1641.39 321.4 1645.12 321.4C1648.46 321.4 1651.66 322.267 1654.72 324C1657.92 325.6 1660.72 328 1663.12 331.2C1665.12 333.867 1666.92 336.8 1668.52 340C1670.12 343.067 1672.12 347.2 1674.52 352.4L1678.32 360.4C1679.26 362.533 1679.99 365.467 1680.52 369.2C1681.19 375.333 1683.92 379.133 1688.72 380.6C1689.39 380.867 1690.12 381.533 1690.92 382.6C1691.72 383.533 1692.39 384.333 1692.92 385C1688.92 387.667 1686.92 391.2 1686.92 395.6C1686.92 398 1687.52 401.333 1688.72 405.6C1690.32 411.333 1691.92 417.8 1693.52 425C1695.26 432.067 1696.39 436.867 1696.92 439.4L1699.32 450.4C1699.46 450.933 1699.52 451.667 1699.52 452.6L1699.32 458C1698.12 458.4 1696.52 459 1694.52 459.8C1692.52 460.6 1690.86 461 1689.52 461C1685.92 461 1681.92 460.2 1677.52 458.6C1675.79 458.067 1674.66 457.2 1674.12 456C1673.72 454.667 1673.52 453.067 1673.52 451.2C1673.52 449.333 1673.46 448 1673.32 447.2L1672.32 441.6C1667.92 417.467 1665.32 404.067 1664.52 401.4C1661.32 402.333 1657.26 403 1652.32 403.4C1646.46 404.2 1642.39 404.933 1640.12 405.6C1638.92 406 1636.86 406.2 1633.92 406.2L1625.72 406C1621.99 406 1619.19 406.4 1617.32 407.2C1616.26 407.733 1613.86 413 1610.12 423C1607.32 430.2 1605.59 434.4 1604.92 435.6C1602.39 440.267 1599.06 443.733 1594.92 446C1590.79 448.133 1586.12 449.2 1580.92 449.2ZM1626.12 383.8C1628.66 383.4 1631.59 383.2 1634.92 383.2H1642.12C1646.39 383.2 1649.99 383 1652.92 382.6C1655.99 382.067 1658.72 381.067 1661.12 379.6C1660.06 376.667 1657.66 371.6 1653.92 364.4C1649.79 356.267 1646.92 349.933 1645.32 345.4C1640.26 353.533 1636.19 360.467 1633.12 366.2C1630.19 371.933 1627.86 377.8 1626.12 383.8ZM1742.32 312.2C1744.72 313.8 1746.72 316 1748.32 318.8C1750.06 321.6 1750.92 324.467 1750.92 327.4C1750.92 328.733 1750.72 330.133 1750.32 331.6C1745.12 347.333 1740.12 360.533 1735.32 371.2C1733.99 374.267 1732.19 376.8 1729.92 378.8C1727.79 380.667 1725.06 381.533 1721.72 381.4C1721.59 381 1721.19 379.867 1720.52 378C1719.86 376.133 1719.52 374.6 1719.52 373.4C1719.52 372.2 1720.12 369.933 1721.32 366.6C1726.39 352.6 1728.72 339.267 1728.32 326.6C1728.19 323.133 1729.19 319.2 1731.32 314.8C1731.86 313.6 1732.72 312.667 1733.92 312C1735.12 311.2 1736.39 310.8 1737.72 310.8C1739.19 310.8 1740.72 311.267 1742.32 312.2ZM1851.89 318.6C1855.22 319.933 1856.89 321.8 1856.89 324.2C1856.89 326.6 1855.22 329.667 1851.89 333.4C1850.42 333.267 1848.29 333.2 1845.49 333.2C1839.36 333.2 1833.49 334.067 1827.89 335.8C1822.29 337.4 1816.49 339.933 1810.49 343.4C1807.69 345.133 1805.29 347.333 1803.29 350C1801.82 351.6 1801.09 353.467 1801.09 355.6C1801.09 359.2 1803.09 362.667 1807.09 366C1810.96 370 1817.29 377.267 1826.09 387.8L1830.69 392.6C1837.22 399.667 1842.36 405.667 1846.09 410.6C1849.96 415.533 1853.22 421.2 1855.89 427.6C1856.96 430.4 1857.49 432.933 1857.49 435.2C1857.49 440.933 1855.29 446.2 1850.89 451C1845.82 456.6 1839.96 460.667 1833.29 463.2C1826.62 465.867 1819.09 467.533 1810.69 468.2C1809.62 468.333 1808.36 468.467 1806.89 468.6C1805.42 468.733 1803.76 468.8 1801.89 468.8C1800.69 468.8 1798.89 468.667 1796.49 468.4C1793.56 468.533 1790.49 468 1787.29 466.8C1784.09 465.733 1781.16 464.133 1778.49 462C1773.42 457.733 1770.89 453 1770.89 447.8C1770.89 443.4 1772.76 438.933 1776.49 434.4C1778.36 434.667 1779.42 435.267 1779.69 436.2C1780.09 437 1780.16 437.933 1779.89 439C1779.76 440.067 1779.69 440.933 1779.69 441.6C1779.69 442 1779.82 442.6 1780.09 443.4C1785.29 445.8 1791.49 447 1798.69 447C1806.69 447 1814.22 445.667 1821.29 443C1828.49 440.2 1832.89 436.8 1834.49 432.8C1835.42 430.133 1833.16 425.467 1827.69 418.8C1822.22 412 1816.09 405.4 1809.29 399C1802.89 393.267 1797.09 387.6 1791.89 382C1788.96 378.8 1786.62 375.133 1784.89 371C1783.29 366.733 1782.49 362.333 1782.49 357.8C1782.49 351.667 1784.02 345.867 1787.09 340.4C1790.29 334.933 1795.02 330.467 1801.29 327C1813.29 320.2 1825.56 316.8 1838.09 316.8C1839.82 316.8 1842.29 316.933 1845.49 317.2C1848.42 317.467 1850.56 317.933 1851.89 318.6Z" fill="#1E1E1E"/>
</svg>
