<svg width="2037" height="1104" viewBox="0 0 2037 1104" fill="none" xmlns="http://www.w3.org/2000/svg">
<g clip-path="url(#clip0_523_1073)">
<path d="M264 399.6C263.867 398.667 263.8 397.133 263.8 395C263.8 389.8 264.333 384.733 265.4 379.8C266.467 374.867 268 369.467 270 363.6C272 358.133 275.8 352.667 281.4 347.2C287 341.733 293.267 337.267 300.2 333.8C307.133 330.2 313.4 328.4 319 328.4C324.733 328.4 330.333 330.533 335.8 334.8C341.267 338.933 344.733 343.667 346.2 349C346.467 350.6 346.6 351.667 346.6 352.2C346.6 354.2 346 355.733 344.8 356.8C343.733 357.733 342.267 358.2 340.4 358.2C338.933 358.2 337.8 358.133 337 358C336.6 358 336 357.733 335.2 357.2C331.333 355.067 327.6 354 324 354C317.2 354 310.467 357.533 303.8 364.6C292.467 376.467 286.8 390.6 286.8 407C286.8 412.867 287.4 418.533 288.6 424C289.933 430.133 292.267 434.667 295.6 437.6C299.067 440.4 303.667 441.8 309.4 441.8C311.4 441.8 313.6 441.6 316 441.2C324.4 440.133 332.133 437.6 339.2 433.6C346.267 429.467 354.067 424 362.6 417.2C364.6 415.6 368.133 412.267 373.2 407.2L377.2 403C378.933 401.267 380.4 400.067 381.6 399.4C382.933 398.6 384.133 398.2 385.2 398.2C386.933 398.2 389.067 399.067 391.6 400.8C394.4 402.8 395.8 405.333 395.8 408.4C395.8 410.533 395.067 412.533 393.6 414.4C393.067 415.333 391.6 417.533 389.2 421C386.8 424.333 384.467 427.333 382.2 430C379.933 432.667 377.667 434.933 375.4 436.8C363.133 447.6 350.333 454.867 337 458.6C331.133 460.2 325.267 461 319.4 461C308.6 461 299 458.267 290.6 452.8C282.333 447.333 275.867 440.2 271.2 431.4C266.533 422.467 264.133 413.2 264 403.6V399.6ZM421.758 360.4C426.958 351.733 435.024 344.133 445.958 337.6C454.624 332.4 464.691 329.8 476.158 329.8C484.291 329.8 492.158 331.2 499.758 334C507.358 336.667 513.624 340.467 518.558 345.4C520.291 347.133 522.158 348.8 524.158 350.4C527.224 353.067 529.024 354.733 529.558 355.4C536.224 362.467 539.558 370.267 539.558 378.8C539.558 385.467 537.424 392.267 533.158 399.2C527.558 408.4 521.758 416.467 515.758 423.4C509.758 430.333 503.024 436.267 495.558 441.2C482.891 449.6 470.758 453.8 459.158 453.8C455.691 453.8 452.224 453.4 448.758 452.6C437.158 450.067 427.758 444.667 420.558 436.4C413.358 428 409.758 418.467 409.758 407.8C409.758 399.667 412.024 391.533 416.558 383.4C416.824 382.733 417.358 382.067 418.158 381.4C419.091 380.733 419.824 380.2 420.358 379.8L424.958 382L429.358 384.2C433.491 386.467 436.158 388.333 437.358 389.8C438.691 391.267 439.358 393.333 439.358 396C439.358 397.867 439.158 400.4 438.758 403.6C438.624 404.8 438.558 406.533 438.558 408.8C438.558 413.733 439.158 419.667 440.358 426.6C440.624 428.6 441.424 430.133 442.758 431.2C444.224 432.267 446.024 432.8 448.158 432.8C449.224 432.8 450.091 432.733 450.758 432.6C457.024 431.4 462.358 430 466.758 428.4C471.291 426.8 475.358 424.4 478.958 421.2C485.624 415.467 491.424 409.933 496.358 404.6C501.291 399.267 505.624 393.533 509.358 387.4C511.891 383.133 513.158 379 513.158 375C513.158 371.667 512.424 368.4 510.958 365.2C509.491 362 507.358 358.4 504.558 354.4C499.891 348 493.824 344.8 486.358 344.8C483.691 344.8 480.958 345.2 478.158 346C477.224 346.267 472.958 347.667 465.358 350.2C464.558 350.467 463.691 350.733 462.758 351C461.958 351.267 461.091 351.533 460.158 351.8L437.358 358.4C434.424 359.333 429.891 360.6 423.758 362.2L421.758 360.4ZM595.661 386.4C595.394 385.6 594.728 384.533 593.661 383.2C592.728 381.867 591.928 380.733 591.261 379.8C588.861 386.733 587.061 393.6 585.861 400.4C584.661 407.2 584.061 413 584.061 417.8C584.061 422.6 584.728 427.2 586.061 431.6C587.261 435.733 587.861 440.267 587.861 445.2C587.861 448.267 587.194 450.533 585.861 452C584.528 453.467 582.328 454.667 579.261 455.6C576.461 456.4 572.794 457 568.261 457.4L561.861 458C561.594 457.467 560.661 455.733 559.061 452.8C557.594 450.133 556.594 448.2 556.061 447C555.528 445.667 555.328 444.333 555.461 443C555.728 441.4 555.861 440.067 555.861 439C555.994 437.8 556.061 436.8 556.061 436C556.061 435.333 556.128 434.133 556.261 432.4C556.394 430.667 556.594 429.133 556.861 427.8C558.594 416.733 560.728 406.6 563.261 397.4C565.928 388.2 569.461 379.533 573.861 371.4C574.528 370.2 575.128 369.133 575.661 368.2C576.194 367.267 576.661 366.467 577.061 365.8C577.461 365.267 578.528 363.4 580.261 360.2C581.728 357.533 583.594 355.4 585.861 353.8C588.128 352.2 590.128 350.867 591.861 349.8C593.594 348.6 595.861 347.667 598.661 347C599.728 346.733 600.594 346.6 601.261 346.6C604.728 346.733 607.061 348.467 608.261 351.8L628.661 406.2C632.528 416.6 635.861 424.867 638.661 431C639.861 428.467 640.728 426 641.261 423.6C641.928 421.2 642.461 418.933 642.861 416.8C647.528 391.733 657.861 367.2 673.861 343.2C675.194 341.867 676.861 340.4 678.861 338.8C680.861 337.067 682.328 335.8 683.261 335C686.994 337.933 688.861 340.867 688.861 343.8C688.861 345.533 688.261 347.733 687.061 350.4C686.394 352 684.661 355.4 681.861 360.6L677.661 369C673.528 377.533 670.661 386.6 669.061 396.2C667.461 405.8 666.261 416.933 665.461 429.6C665.194 433.2 665.061 438.667 665.061 446C664.928 447.867 664.861 450.6 664.861 454.2C664.861 458.6 664.128 461.8 662.661 463.8C661.328 465.8 658.594 467.467 654.461 468.8C651.394 469.6 647.728 470.267 643.461 470.8L637.661 471.8C632.728 466.467 628.594 460.867 625.261 455C622.061 449.133 618.328 441.4 614.061 431.8C612.461 427.8 609.194 419.733 604.261 407.6C599.328 395.333 596.461 388.267 595.661 386.4ZM759.781 392C760.181 386.533 760.581 381.533 760.981 377C761.381 372.333 761.781 368.133 762.181 364.4L763.781 348.4C753.381 350 742.315 353.067 730.581 357.6C727.781 358.667 725.181 359.2 722.781 359.2C719.181 359.2 715.848 358.2 712.781 356.2C709.848 354.2 707.515 351.267 705.781 347.4C706.581 344.467 708.048 342.267 710.181 340.8C712.448 339.333 715.515 337.867 719.381 336.4C737.915 329.6 759.115 326.267 782.981 326.4C794.315 326.4 806.115 326.867 818.381 327.8C830.781 328.733 838.048 329.267 840.181 329.4L854.181 330.4C854.715 330.4 855.581 330.4 856.781 330.4C858.115 330.4 859.181 330.733 859.981 331.4C860.781 331.933 861.181 332.867 861.181 334.2C861.181 337.533 858.781 339.467 853.981 340C841.981 341.333 833.448 342.267 828.381 342.8C823.181 343.067 819.248 343.333 816.581 343.6C806.181 344.267 798.381 344.8 793.181 345.2C789.981 345.467 787.781 345.867 786.581 346.4C785.381 346.8 784.581 347.6 784.181 348.8C783.915 349.867 783.648 352.2 783.381 355.8C782.715 364.2 781.315 378.667 779.181 399.2C777.048 417.733 775.715 430.533 775.181 437.6C775.048 441.467 774.181 446.133 772.581 451.6C771.515 455.067 770.648 457.4 769.981 458.6C769.315 459.667 768.315 460.333 766.981 460.6C765.781 460.867 763.448 460.933 759.981 460.8C757.448 460.8 755.448 460.267 753.981 459.2C752.648 458 751.981 456.4 751.981 454.4C751.981 454 752.115 453.133 752.381 451.8C755.315 440.2 757.781 420.267 759.781 392ZM872.33 449.2C869.396 449.2 866.93 448.467 864.93 447C863.063 445.533 861.73 442.8 860.93 438.8C865.196 439.2 868.33 438.267 870.33 436C872.463 433.733 874.396 430.333 876.13 425.8L880.33 413.8C881.13 411.667 883.13 406.067 886.33 397C889.663 387.933 893.063 379.467 896.53 371.6C901.063 360.933 907.996 348 917.33 332.8C919.73 329.067 922.596 326.267 925.93 324.4C929.263 322.4 932.796 321.4 936.53 321.4C939.863 321.4 943.063 322.267 946.13 324C949.33 325.6 952.13 328 954.53 331.2C956.53 333.867 958.33 336.8 959.93 340C961.53 343.067 963.53 347.2 965.93 352.4L969.73 360.4C970.663 362.533 971.396 365.467 971.93 369.2C972.596 375.333 975.33 379.133 980.13 380.6C980.796 380.867 981.53 381.533 982.33 382.6C983.13 383.533 983.796 384.333 984.33 385C980.33 387.667 978.33 391.2 978.33 395.6C978.33 398 978.93 401.333 980.13 405.6C981.73 411.333 983.33 417.8 984.93 425C986.663 432.067 987.796 436.867 988.33 439.4L990.73 450.4C990.863 450.933 990.93 451.667 990.93 452.6L990.73 458C989.53 458.4 987.93 459 985.93 459.8C983.93 460.6 982.263 461 980.93 461C977.33 461 973.33 460.2 968.93 458.6C967.196 458.067 966.063 457.2 965.53 456C965.13 454.667 964.93 453.067 964.93 451.2C964.93 449.333 964.863 448 964.73 447.2L963.73 441.6C959.33 417.467 956.73 404.067 955.93 401.4C952.73 402.333 948.663 403 943.73 403.4C937.863 404.2 933.796 404.933 931.53 405.6C930.33 406 928.263 406.2 925.33 406.2L917.13 406C913.396 406 910.596 406.4 908.73 407.2C907.663 407.733 905.263 413 901.53 423C898.73 430.2 896.996 434.4 896.33 435.6C893.796 440.267 890.463 443.733 886.33 446C882.196 448.133 877.53 449.2 872.33 449.2ZM917.53 383.8C920.063 383.4 922.996 383.2 926.33 383.2H933.53C937.796 383.2 941.396 383 944.33 382.6C947.396 382.067 950.13 381.067 952.53 379.6C951.463 376.667 949.063 371.6 945.33 364.4C941.196 356.267 938.33 349.933 936.73 345.4C931.663 353.533 927.596 360.467 924.53 366.2C921.596 371.933 919.263 377.8 917.53 383.8ZM1128.73 342.8C1129.66 344.933 1130.13 346.667 1130.13 348C1130.13 350 1129.33 351.933 1127.73 353.8C1125.86 354.333 1124.53 354.6 1123.73 354.6C1121.2 354.6 1119 353.8 1117.13 352.2C1115.26 350.6 1113.4 348.4 1111.53 345.6C1107.8 340.533 1102.86 338 1096.73 338C1095.66 338 1093.93 338.133 1091.53 338.4C1069 341.467 1051.8 354.8 1039.93 378.4C1033.8 390.933 1030.73 403.267 1030.73 415.4C1030.73 425 1033.13 432.267 1037.93 437.2C1042.73 442.133 1049.86 444.6 1059.33 444.6C1076.93 444.6 1092.26 440.733 1105.33 433L1129.33 418.6L1144.13 409.6C1146.26 408.267 1147.86 407.6 1148.93 407.6C1150.13 407.6 1151.13 408.067 1151.93 409C1153.26 410.733 1153.93 412.8 1153.93 415.2C1153.93 416.8 1153.46 418.4 1152.53 420C1151.6 421.467 1150.4 422.8 1148.93 424L1142.13 429.8C1137.6 433.667 1133.8 436.8 1130.73 439.2C1127.66 441.467 1124.46 443.6 1121.13 445.6C1103 455.733 1086.4 460.8 1071.33 460.8C1064.13 460.8 1057.06 459.733 1050.13 457.6C1037.6 453.733 1027.93 447.6 1021.13 439.2C1014.33 430.667 1010.93 420 1010.93 407.2C1010.93 403.2 1011.2 399.533 1011.73 396.2C1014.53 377.533 1020.73 361.4 1030.33 347.8C1033.66 343 1038.26 338.267 1044.13 333.6C1050 328.8 1056.53 324.933 1063.73 322C1071.06 318.933 1078.26 317.4 1085.33 317.4C1090.8 317.4 1096 318.4 1100.93 320.4C1107.73 323.067 1113.4 326.133 1117.93 329.6C1122.6 332.933 1126.2 337.333 1128.73 342.8ZM1225.02 392C1225.42 386.533 1225.82 381.533 1226.22 377C1226.62 372.333 1227.02 368.133 1227.42 364.4L1229.02 348.4C1218.62 350 1207.55 353.067 1195.82 357.6C1193.02 358.667 1190.42 359.2 1188.02 359.2C1184.42 359.2 1181.08 358.2 1178.02 356.2C1175.08 354.2 1172.75 351.267 1171.02 347.4C1171.82 344.467 1173.28 342.267 1175.42 340.8C1177.68 339.333 1180.75 337.867 1184.62 336.4C1203.15 329.6 1224.35 326.267 1248.22 326.4C1259.55 326.4 1271.35 326.867 1283.62 327.8C1296.02 328.733 1303.28 329.267 1305.42 329.4L1319.42 330.4C1319.95 330.4 1320.82 330.4 1322.02 330.4C1323.35 330.4 1324.42 330.733 1325.22 331.4C1326.02 331.933 1326.42 332.867 1326.42 334.2C1326.42 337.533 1324.02 339.467 1319.22 340C1307.22 341.333 1298.68 342.267 1293.62 342.8C1288.42 343.067 1284.48 343.333 1281.82 343.6C1271.42 344.267 1263.62 344.8 1258.42 345.2C1255.22 345.467 1253.02 345.867 1251.82 346.4C1250.62 346.8 1249.82 347.6 1249.42 348.8C1249.15 349.867 1248.88 352.2 1248.62 355.8C1247.95 364.2 1246.55 378.667 1244.42 399.2C1242.28 417.733 1240.95 430.533 1240.42 437.6C1240.28 441.467 1239.42 446.133 1237.82 451.6C1236.75 455.067 1235.88 457.4 1235.22 458.6C1234.55 459.667 1233.55 460.333 1232.22 460.6C1231.02 460.867 1228.68 460.933 1225.22 460.8C1222.68 460.8 1220.68 460.267 1219.22 459.2C1217.88 458 1217.22 456.4 1217.22 454.4C1217.22 454 1217.35 453.133 1217.62 451.8C1220.55 440.2 1223.02 420.267 1225.02 392ZM1481.96 412C1482.1 410.667 1482.16 408.6 1482.16 405.8C1482.3 404.867 1482.36 403.333 1482.36 401.2L1477.76 405.6C1473.9 409.2 1470.9 411.867 1468.76 413.6C1465.7 415.867 1463.03 416.933 1460.76 416.8C1455.56 416.4 1451.1 415.333 1447.36 413.6C1443.76 411.733 1441.03 408.6 1439.16 404.2L1430.76 383.8C1430.63 383.933 1430.23 384.4 1429.56 385.2C1429.03 385.867 1428.63 386.6 1428.36 387.4C1422.5 401.4 1416.5 416.333 1410.36 432.2C1406.9 441.133 1403.9 450 1401.36 458.8C1400.7 461.067 1399.56 462.667 1397.96 463.6C1396.5 464.533 1394.56 465 1392.16 465C1388.3 465 1384.63 463.6 1381.16 460.8C1377.83 458 1376.16 454.6 1376.16 450.6C1376.16 449.133 1376.5 447.533 1377.16 445.8C1380.1 438.067 1382.23 432.267 1383.56 428.4C1390.36 410.133 1396.16 395.467 1400.96 384.4C1405.9 373.2 1411.96 362.4 1419.16 352C1421.96 347.867 1423.76 345.4 1424.56 344.6C1426.96 341.667 1429.96 340.2 1433.56 340.2C1434.36 340.2 1435.43 340.333 1436.76 340.6C1442.23 341.667 1445.9 342.667 1447.76 343.6C1449.76 344.4 1451.1 345.8 1451.76 347.8C1452.56 349.667 1453.43 353.333 1454.36 358.8L1457.96 384.2C1460.76 382.6 1463.9 380 1467.36 376.4C1470.96 372.667 1474.36 368.533 1477.56 364C1477.16 364.533 1479.23 361.867 1483.76 356C1485.23 354.267 1487.3 351.667 1489.96 348.2C1492.23 345 1495.23 343.4 1498.96 343.4C1500.3 343.4 1501.63 343.6 1502.96 344C1507.76 345.067 1511.23 346.667 1513.36 348.8C1515.5 350.933 1516.56 354 1516.56 358C1516.56 360.4 1516.3 362.867 1515.76 365.4L1511.56 386.2C1506.5 412.067 1503.7 426.6 1503.16 429.8L1496.76 467C1495.83 473.4 1494.3 482.867 1492.16 495.4C1492.03 496.867 1491.56 498.933 1490.76 501.6C1490.36 502.8 1489.76 504.867 1488.96 507.8C1488.16 510.733 1487.63 513.333 1487.36 515.6C1487.1 517.867 1486.43 519.533 1485.36 520.6C1484.3 521.8 1482.7 522.467 1480.56 522.6C1478.03 522.733 1475.96 522.133 1474.36 520.8C1472.76 519.6 1471.9 517.8 1471.76 515.4L1471.56 502.2C1471.56 497.8 1471.76 493.4 1472.16 489C1473.9 473.533 1475.9 457.867 1478.16 442L1481.96 412ZM1589.32 386.6C1589.32 387.133 1589.38 387.733 1589.52 388.4C1589.65 388.933 1589.78 389.467 1589.92 390C1590.98 390.133 1592.58 390.2 1594.72 390.2C1604.05 390.2 1613.65 388.2 1623.52 384.2C1626.32 383.133 1628.65 382.6 1630.52 382.6C1634.25 382.6 1637.32 384.333 1639.72 387.8C1640.92 389.667 1641.52 391.267 1641.52 392.6C1641.52 394.2 1640.65 395.867 1638.92 397.6C1633.58 402.533 1627.92 405.333 1621.92 406C1616.58 406.667 1608.58 407.8 1597.92 409.4L1583.92 411.4C1581.78 416.067 1580.72 420.6 1580.72 425C1580.72 431.4 1582.92 436.733 1587.32 441C1591.85 445.133 1597.98 447.333 1605.72 447.6C1613.58 447.733 1623.65 447.2 1635.92 446L1638.92 445.8C1642.25 445.8 1644.98 446.6 1647.12 448.2C1649.38 449.667 1651.52 452.333 1653.52 456.2C1652.05 459.4 1649.98 461.533 1647.32 462.6C1644.65 463.8 1641.18 464.667 1636.92 465.2C1632.52 465.733 1627.52 466 1621.92 466C1609.78 466 1598.85 464.067 1589.12 460.2C1571.92 453.533 1560.92 442 1556.12 425.6C1555.45 423.333 1555.12 420.933 1555.12 418.4C1555.12 415.733 1555.12 414.133 1555.12 413.6C1555.12 409.067 1552.92 405.733 1548.52 403.6C1544.92 401.6 1542.12 399.667 1540.12 397.8C1538.25 395.933 1537.05 393.133 1536.52 389.4L1559.12 388L1569.32 358.6C1569.58 357.667 1569.85 356.533 1570.12 355.2C1570.52 353.733 1570.92 352.6 1571.32 351.8C1572.52 349.133 1573.12 346.933 1573.12 345.2C1573.12 342.533 1571.85 340.2 1569.32 338.2C1568.38 337.533 1567.58 336.333 1566.92 334.6C1566.38 332.733 1565.85 331.267 1565.32 330.2L1569.72 328.8C1571.85 328.267 1573.38 327.8 1574.32 327.4C1574.85 327.133 1575.98 326.667 1577.72 326C1579.45 325.2 1580.45 324.333 1580.72 323.4C1581.65 321.133 1582.78 319.6 1584.12 318.8C1585.58 318 1587.32 317.6 1589.32 317.6C1590.65 317.6 1592.65 317.733 1595.32 318C1596.12 318 1596.92 318.2 1597.72 318.6C1598.65 318.867 1599.38 319.267 1599.92 319.8C1602.98 323 1606.38 325.133 1610.12 326.2C1613.85 327.267 1618.25 327.8 1623.32 327.8H1631.92H1648.72C1660.05 327.8 1668.52 327.933 1674.12 328.2C1677.05 328.333 1680.78 329.6 1685.32 332C1686.12 332.4 1686.72 333.2 1687.12 334.4C1687.65 335.467 1687.92 336.533 1687.92 337.6C1687.92 338.133 1687.45 338.8 1686.52 339.6C1685.58 340.267 1684.72 340.733 1683.92 341C1674.85 343.4 1667.98 344.8 1663.32 345.2C1656.12 345.867 1645.32 346.733 1630.92 347.8C1627.58 347.933 1622.25 348.267 1614.92 348.8C1614.38 348.8 1613.45 348.667 1612.12 348.4C1610.78 348 1609.78 347.8 1609.12 347.8C1604.18 347.8 1601.05 349.867 1599.72 354C1596.12 364.667 1592.72 375.267 1589.52 385.8L1589.32 386.6ZM1875.56 389.4C1875.96 397.533 1874.16 406.133 1870.16 415.2C1866.29 424.267 1860.83 432.467 1853.76 439.8C1846.83 447.133 1839.16 452.4 1830.76 455.6C1822.36 458.8 1814.09 460.4 1805.96 460.4C1797.56 460.4 1789.56 458.733 1781.96 455.4C1774.49 451.933 1767.63 446.867 1761.36 440.2C1757.23 435.933 1753.76 430.667 1750.96 424.4C1748.16 418 1746.09 411.4 1744.76 404.6C1743.56 398.333 1742.96 392.2 1742.96 386.2C1742.96 372.467 1746.09 360.333 1752.36 349.8C1756.23 343.267 1760.63 338.267 1765.56 334.8C1770.63 331.2 1776.56 329.4 1783.36 329.4C1784.43 329.4 1786.29 329.533 1788.96 329.8C1794.69 330.6 1801.76 331.133 1810.16 331.4C1818.43 331.667 1824.56 332.067 1828.56 332.6C1835.89 333.4 1842.36 336 1847.96 340.4C1853.69 344.8 1858.96 350.467 1863.76 357.4C1865.76 360.333 1867.49 363.4 1868.96 366.6C1870.56 369.8 1872.29 373.733 1874.16 378.4L1878.36 388.2L1875.56 389.4ZM1810.16 438C1817.49 435.467 1824.16 431.4 1830.16 425.8C1836.16 420.2 1840.83 413.667 1844.16 406.2C1847.49 398.733 1848.96 391.133 1848.56 383.4C1847.76 370.733 1846.09 361.4 1843.56 355.4C1841.03 349.4 1836.96 345.2 1831.36 342.8C1825.89 340.4 1817.49 338.8 1806.16 338C1804.96 337.867 1803.69 337.8 1802.36 337.8L1789.16 352C1785.43 356.267 1782.89 359.667 1781.56 362.2C1775.56 373.267 1772.56 386.533 1772.56 402C1772.56 407.2 1772.69 411.133 1772.96 413.8C1773.49 422.2 1776.03 428.733 1780.56 433.4C1785.09 437.933 1790.89 440.2 1797.96 440.2C1801.43 440.2 1805.49 439.467 1810.16 438ZM1918.43 362.4C1917.9 357.6 1918.56 353.267 1920.43 349.4C1922.43 345.4 1925.23 341.533 1928.83 337.8L1941.03 336.8C1942.9 336.533 1944.03 336.4 1944.43 336.4C1946.43 336.4 1948.96 338.867 1952.03 343.8C1952.3 344.6 1952.56 345.6 1952.83 346.8C1953.1 347.867 1953.5 348.733 1954.03 349.4L1977.23 381.6C1980.7 386 1984.1 390.6 1987.43 395.4L1990.83 384.4C1995.1 370.4 1998.96 359.067 2002.43 350.4C2006.03 341.6 2010.7 333.267 2016.43 325.4L2026.03 326.8C2028.56 328.8 2029.43 331.467 2028.63 334.8C2027.43 339.6 2026.16 343.2 2024.83 345.6C2021.63 353.733 2018.96 362 2016.83 370.4C2014.7 378.667 2012.3 389.133 2009.63 401.8C2009.23 403.533 2008.7 406.133 2008.03 409.6C2006.96 414.933 2004.9 418.933 2001.83 421.6C1998.76 424.133 1994.56 425.533 1989.23 425.8C1983.9 426.067 1979.3 423.867 1975.43 419.2C1971.43 414.4 1966.43 407.933 1960.43 399.8L1956.43 394.4C1952.83 389.6 1947.36 382.533 1940.03 373.2L1938.23 381.8C1936.23 391.4 1935.03 398.933 1934.63 404.4L1933.43 428.6C1933.3 431.267 1933.16 434.667 1933.03 438.8C1932.9 442.8 1932.63 447.533 1932.23 453C1932.1 457 1930.7 460.467 1928.03 463.4C1925.5 466.333 1922.3 468.333 1918.43 469.4C1916.43 469.933 1913.96 469.4 1911.03 467.8C1908.23 466.333 1906.56 464.6 1906.03 462.6C1905.1 459.133 1904.63 456.067 1904.63 453.4C1904.63 451 1904.96 448.867 1905.63 447C1906.83 443.8 1907.63 438.733 1908.03 431.8C1908.3 427.533 1908.63 424.333 1909.03 422.2C1910.76 409.933 1913.43 393 1917.03 371.4C1917.16 370.333 1917.43 368.933 1917.83 367.2C1918.36 365.333 1918.56 363.733 1918.43 362.4Z" fill="#FE5C2B"/>
</g>
<defs>
<clipPath id="clip0_523_1073">
<rect width="2037" height="1104" fill="white"/>
</clipPath>
</defs>
</svg>
