<svg width="4719" height="3566" viewBox="0 0 4719 3566" fill="none" xmlns="http://www.w3.org/2000/svg">
<g clip-path="url(#clip0_411_1777)">
<rect width="4719" height="3566" fill="#1E1E1E"/>
<path d="M1897.2 1693H1838.7C1838.7 1651.9 1855.8 1607.5 1875.3 1586.2L1918.5 1539.1C1895.7 1537.9 1878.3 1537.3 1859.1 1537.3C1846.2 1537.3 1832.1 1537.6 1815 1538.5V1483C1840.5 1484.5 1858.5 1485.1 1877.1 1485.1C1897.8 1485.1 1918.8 1484.2 1950 1482.7V1540.9L1908 1586.2C1887.9 1608.1 1897.2 1651.9 1897.2 1693ZM2237.93 1693C2175.83 1694.5 2170.13 1674.1 2170.13 1653.4C2170.13 1632.1 2179.43 1617.7 2184.53 1602.1C2155.43 1593.1 2117.93 1540.3 2117.93 1483H2176.43V1487.2C2176.43 1508.2 2174.93 1579.3 2193.83 1579.3H2207.33C2226.23 1579.3 2224.73 1508.2 2224.73 1487.2V1483H2283.23C2283.23 1540.9 2244.83 1594.3 2215.73 1601.5C2215.73 1603.3 2215.73 1605.7 2215.73 1623.4C2215.73 1633 2216.93 1642 2230.73 1642H2232.53L2237.93 1693ZM2388.38 1693C2318.48 1696.3 2286.38 1656.4 2286.38 1578.7C2286.38 1526.5 2316.98 1483 2369.18 1483H2422.88L2415.68 1552C2409.38 1546.3 2394.68 1541.5 2370.68 1541.5C2349.68 1541.5 2319.38 1550.2 2308.58 1569.1C2341.88 1569.4 2381.18 1578.4 2400.08 1578.4V1612.9C2370.08 1612.9 2335.58 1591.9 2304.68 1588C2308.88 1612.9 2355.08 1634.8 2384.48 1634.8C2408.48 1634.8 2419.88 1632.4 2432.78 1628.5L2434.58 1693H2388.38ZM2515.79 1693H2457.59C2452.49 1666 2452.49 1623.7 2456.69 1586.5C2462.09 1540 2479.79 1478.2 2537.09 1478.2C2591.39 1478.2 2591.99 1568.8 2591.99 1601.2C2591.99 1632.1 2587.79 1672.6 2584.49 1693H2525.99C2528.69 1653.1 2557.19 1651.9 2565.59 1617.7H2483.69C2491.19 1655.2 2510.69 1670.5 2515.79 1693ZM2481.29 1599.7H2567.99C2567.99 1567.3 2555.09 1536.7 2517.89 1536.7C2488.79 1536.7 2480.69 1562.8 2480.69 1585.6C2480.69 1590.7 2480.99 1595.2 2481.29 1599.7ZM2610.12 1492.9C2625.12 1483 2651.22 1478.5 2679.12 1478.5C2737.92 1478.5 2773.92 1510.3 2773.92 1544.8C2773.92 1572.1 2757.42 1592.8 2733.12 1603.9C2762.82 1618.3 2788.32 1648.9 2788.32 1693H2729.82V1688.8C2729.82 1667.8 2725.32 1612.3 2693.82 1612.3C2689.32 1612.3 2687.22 1612.3 2678.22 1612.3C2683.02 1639 2689.32 1670.5 2689.32 1693H2630.82C2630.82 1651 2643.72 1606 2648.82 1574.2C2651.52 1557.1 2651.82 1548.7 2651.82 1540C2636.22 1542.4 2623.32 1546.3 2617.92 1549.6L2610.12 1492.9ZM2672.82 1572.7C2672.82 1578.4 2673.72 1585.6 2674.92 1594.3H2683.92C2701.92 1594.3 2715.42 1582.9 2715.42 1567C2715.42 1550.5 2706.42 1537 2686.02 1537C2681.52 1537 2677.32 1537.3 2672.82 1540.3C2672.82 1551.7 2672.82 1541.8 2672.82 1572.7ZM2877.81 1697.5C2849.01 1697.5 2822.31 1693 2806.41 1683.1L2814.21 1626.4C2822.31 1632.1 2850.21 1639 2879.31 1639C2900.61 1639 2918.01 1634.5 2918.01 1620.1C2918.01 1605.7 2902.11 1601.2 2885.01 1601.2C2855.91 1601.2 2811.51 1586.5 2811.51 1537.6C2811.51 1498 2846.31 1478.2 2888.91 1478.2C2917.41 1478.2 2948.31 1484.8 2968.41 1499.5L2936.91 1545.4C2922.81 1540 2901.51 1536.7 2875.71 1536.7C2851.41 1536.7 2835.51 1543.9 2835.51 1556.2C2835.51 1571.5 2856.51 1577.2 2887.41 1577.2C2925.51 1577.2 2976.51 1583.5 2976.51 1629.7C2976.51 1673.5 2937.51 1697.5 2877.81 1697.5Z" fill="white"/>
<path d="M1205 1822.9C1223 1813 1253.3 1808.5 1286.3 1808.5C1355.9 1808.5 1398.2 1856.5 1398.2 1908.7C1398.2 1982.8 1353.2 2027.5 1292.3 2027.5C1245.8 2027.5 1217.9 1999 1217.9 1952.5C1217.9 1916.8 1236.5 1887.4 1256.9 1869.1C1235.9 1871.8 1219.1 1876 1212.8 1879.6L1205 1822.9ZM1295.9 1867C1272.2 1868.8 1241.9 1908.4 1241.9 1936.6C1241.9 1960.3 1267.4 1969 1292.3 1969C1319 1969 1339.7 1948.9 1339.7 1924C1339.7 1895.5 1322 1868.5 1295.9 1867ZM1415.93 2023C1416.23 2017.6 1433.93 1929.1 1433.93 1884.4C1433.93 1832.2 1449.23 1813 1501.43 1813H1549.13L1541.93 1882C1535.33 1876.3 1526.33 1871.5 1493.63 1871.5C1471.13 1871.5 1457.93 1874.5 1457.93 1890.7C1457.93 1893.4 1457.93 1896.1 1458.23 1899.1C1488.53 1898.5 1506.53 1908.4 1526.33 1908.4V1942.9C1497.23 1942.9 1485.53 1923.1 1460.03 1918.3C1464.53 1953.1 1474.43 1998.4 1474.43 2023H1415.93ZM1743.81 2023C1673.91 2026.3 1641.81 1986.4 1641.81 1908.7C1641.81 1856.5 1672.41 1813 1724.61 1813H1778.31L1771.11 1882C1764.81 1876.3 1750.11 1871.5 1726.11 1871.5C1705.11 1871.5 1674.81 1880.2 1664.01 1899.1C1697.31 1899.4 1736.61 1908.4 1755.51 1908.4V1942.9C1725.51 1942.9 1691.01 1921.9 1660.11 1918C1664.31 1942.9 1710.51 1964.8 1739.91 1964.8C1763.91 1964.8 1775.31 1962.4 1788.21 1958.5L1790.01 2023H1743.81ZM1900.62 2027.5C1847.22 2027.5 1808.22 2005 1808.22 1958.2C1808.22 1894.3 1849.32 1808.5 1899.42 1808.5C1932.12 1808.5 1948.62 1815.1 1972.02 1829.8L1940.52 1875.7C1928.52 1871.2 1912.32 1867 1896.12 1867C1855.92 1867 1834.62 1885.9 1834.62 1930.3C1834.62 1965.4 1885.92 1969 1915.02 1969C1937.82 1969 1958.52 1962.4 1972.02 1956.4L1979.82 2013.1C1959.42 2025.1 1921.62 2027.5 1900.62 2027.5ZM1987.52 1822.9C2002.52 1813 2028.62 1808.5 2056.52 1808.5C2115.32 1808.5 2151.32 1840.3 2151.32 1874.8C2151.32 1915.6 2113.82 1942.3 2069.12 1942.3H2055.62C2060.42 1969 2066.72 2000.5 2066.72 2023H2008.22C2008.22 1981 2021.12 1936 2026.22 1904.2C2028.92 1887.1 2029.22 1878.7 2029.22 1870C2013.62 1872.4 2000.72 1876.3 1995.32 1879.6L1987.52 1822.9ZM2050.22 1902.7C2050.22 1908.4 2051.12 1915.6 2052.32 1924.3H2061.32C2079.32 1924.3 2092.82 1912.9 2092.82 1897C2092.82 1880.5 2083.82 1867 2063.42 1867C2058.92 1867 2054.72 1867.3 2050.22 1870.3C2050.22 1881.7 2050.22 1871.8 2050.22 1902.7ZM2271.15 2023C2201.25 2026.3 2169.15 1986.4 2169.15 1908.7C2169.15 1856.5 2199.75 1813 2251.95 1813H2305.65L2298.45 1882C2292.15 1876.3 2277.45 1871.5 2253.45 1871.5C2232.45 1871.5 2202.15 1880.2 2191.35 1899.1C2224.65 1899.4 2263.95 1908.4 2282.85 1908.4V1942.9C2252.85 1942.9 2218.35 1921.9 2187.45 1918C2191.65 1942.9 2237.85 1964.8 2267.25 1964.8C2291.25 1964.8 2302.65 1962.4 2315.55 1958.5L2317.35 2023H2271.15ZM2324.14 1822.9C2339.14 1813 2365.24 1808.5 2393.14 1808.5C2451.94 1808.5 2487.94 1840.3 2487.94 1874.8C2487.94 1902.1 2471.44 1922.8 2447.14 1933.9C2476.84 1948.3 2502.34 1978.9 2502.34 2023H2443.84V2018.8C2443.84 1997.8 2439.34 1942.3 2407.84 1942.3C2403.34 1942.3 2401.24 1942.3 2392.24 1942.3C2397.04 1969 2403.34 2000.5 2403.34 2023H2344.84C2344.84 1981 2357.74 1936 2362.84 1904.2C2365.54 1887.1 2365.84 1878.7 2365.84 1870C2350.24 1872.4 2337.34 1876.3 2331.94 1879.6L2324.14 1822.9ZM2386.84 1902.7C2386.84 1908.4 2387.74 1915.6 2388.94 1924.3H2397.94C2415.94 1924.3 2429.44 1912.9 2429.44 1897C2429.44 1880.5 2420.44 1867 2400.04 1867C2395.54 1867 2391.34 1867.3 2386.84 1870.3C2386.84 1881.7 2386.84 1871.8 2386.84 1902.7ZM2603.23 2023C2541.13 2024.5 2535.43 2006.2 2535.43 1971.4C2535.43 1942.6 2552.83 1919.8 2552.83 1895.8C2552.83 1875.4 2538.43 1871.2 2524.63 1871.2H2522.83L2517.43 1813C2579.53 1811.5 2581.03 1858.6 2581.03 1873C2581.03 1904.2 2581.03 1918.9 2581.03 1953.4C2581.03 1963 2582.23 1972 2596.03 1972H2597.83L2603.23 2023ZM2714.19 2027.5C2660.79 2027.5 2621.79 2005 2621.79 1958.2C2621.79 1894.3 2662.89 1808.5 2712.99 1808.5C2745.69 1808.5 2762.19 1815.1 2785.59 1829.8L2754.09 1875.7C2742.09 1871.2 2725.89 1867 2709.69 1867C2669.49 1867 2648.19 1885.9 2648.19 1930.3C2648.19 1965.4 2699.49 1969 2728.59 1969C2751.39 1969 2772.09 1962.4 2785.59 1956.4L2793.39 2013.1C2772.99 2025.1 2735.19 2027.5 2714.19 2027.5ZM2907.19 2023C2837.29 2026.3 2805.19 1986.4 2805.19 1908.7C2805.19 1856.5 2835.79 1813 2887.99 1813H2941.69L2934.49 1882C2928.19 1876.3 2913.49 1871.5 2889.49 1871.5C2868.49 1871.5 2838.19 1880.2 2827.39 1899.1C2860.69 1899.4 2899.99 1908.4 2918.89 1908.4V1942.9C2888.89 1942.9 2854.39 1921.9 2823.49 1918C2827.69 1942.9 2873.89 1964.8 2903.29 1964.8C2927.29 1964.8 2938.69 1962.4 2951.59 1958.5L2953.39 2023H2907.19ZM3080.19 1910.2L3097.59 1959.7C3102.39 1973.2 3111.39 1977.4 3117.09 1977.4C3121.89 1977.4 3130.59 1973.5 3130.59 1963C3130.59 1938.4 3092.49 1880.8 3092.49 1813H3150.99C3150.99 1863.4 3154.59 1912 3154.59 1962.4C3154.59 2001.4 3150.69 2027.5 3123.09 2027.5C3112.59 2027.5 3085.89 2025.1 3076.59 1996.6L3056.19 1934.2L3036.69 1873C3033.39 1863.1 3025.29 1858.6 3019.59 1858.6C3012.69 1858.6 3006.09 1862.5 3006.09 1874.8C3006.09 1910.5 3044.19 1955.2 3044.19 2023H2985.69C2985.69 1972.6 2982.09 1924 2982.09 1873.6C2982.09 1834.6 2982.69 1808.5 3010.29 1808.5C3021.09 1808.5 3051.69 1810.9 3060.69 1842.1L3080.19 1910.2ZM3275.23 2027.5C3221.83 2027.5 3182.83 2005 3182.83 1958.2C3182.83 1894.3 3223.93 1808.5 3274.03 1808.5C3306.73 1808.5 3323.23 1815.1 3346.63 1829.8L3315.13 1875.7C3303.13 1871.2 3286.93 1867 3270.73 1867C3230.53 1867 3209.23 1885.9 3209.23 1930.3C3209.23 1965.4 3260.53 1969 3289.63 1969C3312.43 1969 3333.13 1962.4 3346.63 1956.4L3354.43 2013.1C3334.03 2025.1 3296.23 2027.5 3275.23 2027.5ZM3468.22 2023C3398.32 2026.3 3366.22 1986.4 3366.22 1908.7C3366.22 1856.5 3396.82 1813 3449.02 1813H3502.72L3495.52 1882C3489.22 1876.3 3474.52 1871.5 3450.52 1871.5C3429.52 1871.5 3399.22 1880.2 3388.42 1899.1C3421.72 1899.4 3461.02 1908.4 3479.92 1908.4V1942.9C3449.92 1942.9 3415.42 1921.9 3384.52 1918C3388.72 1942.9 3434.92 1964.8 3464.32 1964.8C3488.32 1964.8 3499.72 1962.4 3512.62 1958.5L3514.42 2023H3468.22Z" fill="white"/>
<path d="M965.84 708.42C806.87 742.91 778.91 770.87 744.42 929.84C709.93 770.87 681.97 742.91 523 708.42C681.97 673.93 709.93 645.97 744.42 487C778.91 645.97 806.87 673.93 965.84 708.42Z" fill="#FE5C2B"/>
<path d="M4225.84 2871.42C4066.87 2905.91 4038.91 2933.87 4004.42 3092.84C3969.93 2933.87 3941.97 2905.91 3783 2871.42C3941.97 2836.93 3969.93 2808.97 4004.42 2650C4038.91 2808.97 4066.87 2836.93 4225.84 2871.42Z" fill="#7A74F7"/>
<path d="M-624.783 3008C-47.7916 2476.55 731.226 2355.3 1508.91 2675.89C1699.51 2754.44 1891.21 2858.8 2080.01 2893.6C2268.8 2928.41 2460.29 2883.63 2566.82 2696.02C2805.2 2275.89 2510.15 1428.52 2680.39 928.011C2766.11 675.97 2955.98 560.004 3148.21 494.903C3340.36 429.827 3546.74 401.944 3714.81 273.254C3882.88 144.563 4009.49 -117.312 3964.03 -439" stroke="white" stroke-width="3" stroke-miterlimit="10"/>
</g>
<defs>
<clipPath id="clip0_411_1777">
<rect width="4719" height="3566" fill="white"/>
</clipPath>
</defs>
</svg>
