<svg width="1769" height="1502" viewBox="0 0 1769 1502" fill="none" xmlns="http://www.w3.org/2000/svg">
<g clip-path="url(#clip0_512_1113)">
<rect width="1769" height="1502" fill="#1E1E1E"/>
<path d="M1687 717.5C1553.1 746.551 1529.55 770.101 1500.5 904C1471.45 770.101 1447.9 746.551 1314 717.5C1447.9 688.449 1471.45 664.899 1500.5 531C1529.55 664.899 1553.1 688.449 1687 717.5Z" fill="#FE5C2B"/>
<path d="M159.8 330C159.8 300.2 184.2 261.6 184.2 245.8C184.2 231.6 172 229.4 162.8 229.4H161.6L158 190.6C199.4 189.6 200.2 220.4 200.2 230C200.2 239 200 248 200 256.8H248.2C249.2 253.8 249.6 251.4 249.6 249.2C249.6 235.6 237.4 233.4 228.2 233.4H227L223.4 190.6C264.8 189.6 265.6 220.4 265.6 230C265.6 263.8 264.2 295.6 264.2 330H225.2C225.2 310.2 236.8 286.6 244 268.8H199.8C199.4 289 198.8 309 198.8 330H159.8ZM345.331 330C298.731 332.2 277.331 305.6 277.331 253.8C277.331 219 297.731 190 332.531 190H368.331L363.531 236C359.331 232.2 349.531 229 333.531 229C319.531 229 299.331 234.8 292.131 247.4C314.331 247.6 340.531 253.6 353.131 253.6V276.6C333.131 276.6 310.131 262.6 289.531 260C292.331 276.6 323.131 291.2 342.731 291.2C358.731 291.2 366.331 289.6 374.931 287L376.131 330H345.331ZM380.656 196.6C390.656 190 408.056 187 426.656 187C465.856 187 489.856 208.2 489.856 231.2C489.856 249.4 478.856 263.2 462.656 270.6C482.456 280.2 499.456 300.6 499.456 330H460.456V327.2C460.456 313.2 457.456 276.2 436.456 276.2C433.456 276.2 432.056 276.2 426.056 276.2C429.256 294 433.456 315 433.456 330H394.456C394.456 302 403.056 272 406.456 250.8C408.256 239.4 408.456 233.8 408.456 228C398.056 229.6 389.456 232.2 385.856 234.4L380.656 196.6ZM422.456 249.8C422.456 253.6 423.056 258.4 423.856 264.2H429.856C441.856 264.2 450.856 256.6 450.856 246C450.856 235 444.856 226 431.256 226C428.256 226 425.456 226.2 422.456 228.2C422.456 235.8 422.456 229.2 422.456 249.8ZM571.503 330C524.903 332.2 503.503 305.6 503.503 253.8C503.503 219 523.903 190 558.703 190H594.503L589.703 236C585.503 232.2 575.703 229 559.703 229C545.703 229 525.503 234.8 518.303 247.4C540.503 247.6 566.703 253.6 579.303 253.6V276.6C559.303 276.6 536.303 262.6 515.703 260C518.503 276.6 549.303 291.2 568.903 291.2C584.903 291.2 592.503 289.6 601.103 287L602.303 330H571.503ZM620.041 317C620.041 307.4 627.241 301 638.041 301C648.841 301 656.041 307.4 656.041 317C656.041 338.2 649.441 366.4 620.041 366.4H614.641L618.241 344.2H622.441C627.041 344.2 631.241 339 634.441 332.8C625.641 331.6 620.041 325.6 620.041 317ZM797.961 330C756.561 331 752.761 317.4 752.761 303.6C752.761 289.4 758.961 279.8 762.361 269.4C742.961 263.4 717.961 228.2 717.961 190H756.961V192.8C756.961 206.8 755.961 254.2 768.561 254.2H777.561C790.161 254.2 789.161 206.8 789.161 192.8V190H828.161C828.161 228.6 802.561 264.2 783.161 269C783.161 270.2 783.161 271.8 783.161 283.6C783.161 290 783.961 296 793.161 296H794.361L797.961 330ZM840.227 196.6C852.227 190 872.427 187 894.427 187C940.827 187 969.027 219 969.027 253.8C969.027 303.2 939.027 333 898.427 333C867.427 333 848.827 314 848.827 283C848.827 259.2 861.227 239.6 874.827 227.4C860.827 229.2 849.627 232 845.427 234.4L840.227 196.6ZM900.827 226C885.027 227.2 864.827 253.6 864.827 272.4C864.827 288.2 881.827 294 898.427 294C916.227 294 930.027 280.6 930.027 264C930.027 245 918.227 227 900.827 226ZM991.647 283L996.647 243.8C998.247 231.6 993.247 228.8 985.847 228.8H984.647L981.047 190C1022.45 189 1018.85 220.6 1017.05 230L1010.45 265.4C1006.45 286.8 1026.05 294 1045.05 294C1057.25 294 1086.05 288.2 1086.05 264C1086.05 263 1086.05 261.8 1085.85 260.8C1084.85 246 1067.05 230 1065.85 190H1104.85C1104.85 223.6 1097.65 229.6 1097.65 250C1099.25 301.6 1082.85 333 1041.25 333C1010.25 333 987.647 313.6 991.647 283ZM1228.19 333C1192.59 333 1166.59 318 1166.59 286.8C1166.59 244.2 1193.99 187 1227.39 187C1249.19 187 1260.19 191.4 1275.79 201.2L1254.79 231.8C1246.79 228.8 1235.99 226 1225.19 226C1198.39 226 1184.19 238.6 1184.19 268.2C1184.19 291.6 1218.39 294 1237.79 294C1252.99 294 1266.79 289.6 1275.79 285.6L1280.99 323.4C1267.39 331.4 1242.19 333 1228.19 333ZM1334.76 330H1295.96C1292.56 312 1292.56 283.8 1295.36 259C1298.96 228 1310.76 186.8 1348.96 186.8C1385.16 186.8 1385.56 247.2 1385.56 268.8C1385.56 289.4 1382.76 316.4 1380.56 330H1341.56C1343.36 303.4 1362.36 302.6 1367.96 279.8H1313.36C1318.36 304.8 1331.36 315 1334.76 330ZM1311.76 267.8H1369.56C1369.56 246.2 1360.96 225.8 1336.16 225.8C1316.76 225.8 1311.36 243.2 1311.36 258.4C1311.36 261.8 1311.56 264.8 1311.76 267.8ZM1469.85 254.8L1481.45 287.8C1484.65 296.8 1490.65 299.6 1494.45 299.6C1497.65 299.6 1503.45 297 1503.45 290C1503.45 273.6 1478.05 235.2 1478.05 190H1517.05C1517.05 223.6 1519.45 256 1519.45 289.6C1519.45 315.6 1516.85 333 1498.45 333C1491.45 333 1473.65 331.4 1467.45 312.4L1453.85 270.8L1440.85 230C1438.65 223.4 1433.25 220.4 1429.45 220.4C1424.85 220.4 1420.45 223 1420.45 231.2C1420.45 255 1445.85 284.8 1445.85 330H1406.85C1406.85 296.4 1404.45 264 1404.45 230.4C1404.45 204.4 1404.85 187 1423.25 187C1430.45 187 1450.85 188.6 1456.85 209.4L1469.85 254.8ZM225.8 665C179.2 667.2 157.8 640.6 157.8 588.8C157.8 554 178.2 525 213 525H248.8L244 571C239.8 567.2 230 564 214 564C200 564 179.8 569.8 172.6 582.4C194.8 582.6 221 588.6 233.6 588.6V611.6C213.6 611.6 190.6 597.6 170 595C172.8 611.6 203.6 626.2 223.2 626.2C239.2 626.2 246.8 624.6 255.4 622L256.6 665H225.8ZM325.938 605.2C304.938 605.2 307.938 648.2 307.938 662.2V665H268.938C268.938 633.4 285.538 606.2 305.538 595C290.338 580.8 276.137 553.8 276.137 525H307.138V527.8C307.138 541.8 314.138 589.2 326.738 589.2H335.738C348.338 589.2 355.338 541.8 355.338 527.8V525H386.338C386.338 553.8 372.138 580.8 356.938 595C376.938 606.2 393.538 633.4 393.538 665H354.538V662.2C354.538 648.2 357.538 605.2 336.538 605.2C330.338 605.2 328.938 605.2 325.938 605.2ZM397.063 531.6C407.063 525 424.463 522 443.063 522C482.263 522 506.263 543.2 506.263 566.2C506.263 593.4 481.263 611.2 451.463 611.2H442.462C445.663 629 449.862 650 449.862 665H410.863C410.863 637 419.463 607 422.863 585.8C424.663 574.4 424.863 568.8 424.863 563C414.463 564.6 405.863 567.2 402.263 569.4L397.063 531.6ZM438.863 584.8C438.863 588.6 439.463 593.4 440.263 599.2H446.263C458.263 599.2 467.263 591.6 467.263 581C467.263 570 461.263 561 447.663 561C444.663 561 441.863 561.2 438.863 563.2C438.863 570.8 438.863 564.2 438.863 584.8ZM565.934 665C524.534 665 520.734 655 520.734 634.2C520.734 615.8 532.334 601 532.334 585.8C532.334 572.6 522.734 569.8 513.534 569.8H512.334L508.734 525C550.134 524 551.134 555.4 551.134 565C551.134 585.8 551.134 595.6 551.134 618.6C551.134 625 553.134 626.2 562.334 626.2C578.334 626.2 586.934 624.6 595.534 622L596.734 665H565.934ZM599.016 531.6C611.016 525 631.216 522 653.216 522C699.616 522 727.816 554 727.816 588.8C727.816 638.2 697.816 668 657.216 668C626.216 668 607.616 649 607.616 618C607.616 594.2 620.016 574.6 633.616 562.4C619.616 564.2 608.416 567 604.216 569.4L599.016 531.6ZM659.616 561C643.816 562.2 623.616 588.6 623.616 607.4C623.616 623.2 640.616 629 657.216 629C675.016 629 688.816 615.6 688.816 599C688.816 580 677.016 562 659.616 561ZM734.758 531.6C744.758 525 762.158 522 780.758 522C819.958 522 843.958 543.2 843.958 566.2C843.958 584.4 832.958 598.2 816.758 605.6C836.558 615.2 853.558 635.6 853.558 665H814.558V662.2C814.558 648.2 811.558 611.2 790.558 611.2C787.558 611.2 786.158 611.2 780.158 611.2C783.358 629 787.558 650 787.558 665H748.558C748.558 637 757.158 607 760.558 585.8C762.358 574.4 762.558 568.8 762.558 563C752.158 564.6 743.558 567.2 739.958 569.4L734.758 531.6ZM776.558 584.8C776.558 588.6 777.158 593.4 777.958 599.2H783.958C795.958 599.2 804.958 591.6 804.958 581C804.958 570 798.958 561 785.358 561C782.358 561 779.558 561.2 776.558 563.2C776.558 570.8 776.558 564.2 776.558 584.8ZM925.605 665C879.005 667.2 857.605 640.6 857.605 588.8C857.605 554 878.005 525 912.805 525H948.605L943.805 571C939.605 567.2 929.805 564 913.805 564C899.805 564 879.605 569.8 872.405 582.4C894.605 582.6 920.805 588.6 933.405 588.6V611.6C913.405 611.6 890.405 597.6 869.805 595C872.605 611.6 903.405 626.2 923.005 626.2C939.005 626.2 946.605 624.6 955.205 622L956.405 665H925.605ZM1060.54 665H1021.74C1018.34 647 1018.34 618.8 1021.14 594C1024.74 563 1036.54 521.8 1074.74 521.8C1110.94 521.8 1111.34 582.2 1111.34 603.8C1111.34 624.4 1108.54 651.4 1106.34 665H1067.34C1069.14 638.4 1088.14 637.6 1093.74 614.8H1039.14C1044.14 639.8 1057.14 650 1060.54 665ZM1037.54 602.8H1095.34C1095.34 581.2 1086.74 560.8 1061.94 560.8C1042.54 560.8 1037.14 578.2 1037.14 593.4C1037.14 596.8 1037.34 599.8 1037.54 602.8ZM219.4 1003C183.8 1003 157.8 988 157.8 956.8C157.8 914.2 185.2 857 218.6 857C240.4 857 251.4 861.4 267 871.2L246 901.8C238 898.8 227.2 896 216.4 896C189.6 896 175.4 908.6 175.4 938.2C175.4 961.6 209.6 964 229 964C244.2 964 258 959.6 267 955.6L272.2 993.4C258.6 1001.4 233.4 1003 219.4 1003ZM276.359 866.6C288.359 860 308.559 857 330.559 857C376.959 857 405.159 889 405.159 923.8C405.159 973.2 375.159 1003 334.559 1003C303.559 1003 284.959 984 284.959 953C284.959 929.2 297.359 909.6 310.959 897.4C296.959 899.2 285.759 902 281.559 904.4L276.359 866.6ZM336.959 896C321.159 897.2 300.959 923.6 300.959 942.4C300.959 958.2 317.959 964 334.559 964C352.359 964 366.159 950.6 366.159 934C366.159 915 354.359 897 336.959 896ZM472.38 1000C430.98 1000 427.18 990 427.18 969.2C427.18 950.8 438.78 936 438.78 920.8C438.78 907.6 429.18 904.8 419.98 904.8H418.78L415.18 860C456.58 859 457.58 890.4 457.58 900C457.58 920.8 457.58 930.6 457.58 953.6C457.58 960 459.58 961.2 468.78 961.2C484.78 961.2 493.38 959.6 501.98 957L503.18 1000H472.38ZM558.708 1000C517.308 1000 513.508 990 513.508 969.2C513.508 950.8 525.108 936 525.108 920.8C525.108 907.6 515.508 904.8 506.308 904.8H505.108L501.508 860C542.908 859 543.908 890.4 543.908 900C543.908 920.8 543.908 930.6 543.908 953.6C543.908 960 545.908 961.2 555.108 961.2C571.108 961.2 579.708 959.6 588.308 957L589.508 1000H558.708ZM663.495 1000C616.895 1002.2 595.495 975.6 595.495 923.8C595.495 889 615.895 860 650.695 860H686.495L681.695 906C677.495 902.2 667.695 899 651.695 899C637.695 899 617.495 904.8 610.295 917.4C632.495 917.6 658.695 923.6 671.295 923.6V946.6C651.295 946.6 628.295 932.6 607.695 930C610.495 946.6 641.295 961.2 660.895 961.2C676.895 961.2 684.495 959.6 693.095 957L694.295 1000H663.495ZM768.033 1003C732.433 1003 706.433 988 706.433 956.8C706.433 914.2 733.833 857 767.233 857C789.033 857 800.033 861.4 815.633 871.2L794.633 901.8C786.633 898.8 775.833 896 765.033 896C738.233 896 724.033 908.6 724.033 938.2C724.033 961.6 758.233 964 777.633 964C792.833 964 806.633 959.6 815.633 955.6L820.833 993.4C807.233 1001.4 782.033 1003 768.033 1003ZM900.448 1000C859.048 1001 855.248 988.8 855.248 965.6C855.248 948.2 866.848 934.2 866.848 919.8C866.848 907.4 857.248 891 848.048 891H846.848L843.248 860C884.648 859 885.648 890.4 885.648 900C885.648 920.8 885.648 930.6 885.648 953.6C885.648 960 886.448 966 895.648 966H896.848L900.448 1000ZM868.048 895.8C846.248 895.8 831.848 895 827.448 898.8L822.648 860H921.048L916.248 898.8C911.848 895 889.848 895.8 868.048 895.8ZM988.2 1000C946.8 1001 943 988.8 943 965.6C943 946.4 954.6 931.2 954.6 915.2C954.6 901.6 945 898.8 935.8 898.8H934.6L931 860C972.4 859 973.4 890.4 973.4 900C973.4 920.8 973.4 930.6 973.4 953.6C973.4 960 974.2 966 983.4 966H984.6L988.2 1000ZM991.008 866.6C1003.01 860 1023.21 857 1045.21 857C1091.61 857 1119.81 889 1119.81 923.8C1119.81 973.2 1089.81 1003 1049.21 1003C1018.21 1003 999.608 984 999.608 953C999.608 929.2 1012.01 909.6 1025.61 897.4C1011.61 899.2 1000.41 902 996.208 904.4L991.008 866.6ZM1051.61 896C1035.81 897.2 1015.61 923.6 1015.61 942.4C1015.61 958.2 1032.61 964 1049.21 964C1067.01 964 1080.81 950.6 1080.81 934C1080.81 915 1069.01 897 1051.61 896ZM1204.03 924.8L1215.63 957.8C1218.83 966.8 1224.83 969.6 1228.63 969.6C1231.83 969.6 1237.63 967 1237.63 960C1237.63 943.6 1212.23 905.2 1212.23 860H1251.23C1251.23 893.6 1253.63 926 1253.63 959.6C1253.63 985.6 1251.03 1003 1232.63 1003C1225.63 1003 1207.83 1001.4 1201.63 982.4L1188.03 940.8L1175.03 900C1172.83 893.4 1167.43 890.4 1163.63 890.4C1159.03 890.4 1154.63 893 1154.63 901.2C1154.63 925 1180.03 954.8 1180.03 1000H1141.03C1141.03 966.4 1138.63 934 1138.63 900.4C1138.63 874.4 1139.03 857 1157.43 857C1164.63 857 1185.03 858.6 1191.03 879.4L1204.03 924.8ZM158 1201.6C170 1195 190.2 1192 212.2 1192C258.6 1192 286.8 1224 286.8 1258.8C286.8 1308.2 256.8 1338 216.2 1338C185.2 1338 166.6 1319 166.6 1288C166.6 1264.2 179 1244.6 192.6 1232.4C178.6 1234.2 167.4 1237 163.2 1239.4L158 1201.6ZM218.6 1231C202.8 1232.2 182.6 1258.6 182.6 1277.4C182.6 1293.2 199.6 1299 216.2 1299C234 1299 247.8 1285.6 247.8 1269C247.8 1250 236 1232 218.6 1231ZM298.62 1335C298.82 1331.4 310.62 1272.4 310.62 1242.6C310.62 1207.8 320.82 1195 355.62 1195H387.42L382.62 1241C378.22 1237.2 372.22 1234 350.42 1234C335.42 1234 326.62 1236 326.62 1246.8C326.62 1248.6 326.62 1250.4 326.82 1252.4C347.02 1252 359.02 1258.6 372.22 1258.6V1281.6C352.82 1281.6 345.02 1268.4 328.02 1265.2C331.02 1288.4 337.62 1318.6 337.62 1335H298.62ZM497.206 1335H458.206C448.206 1301.8 449.806 1269 449.806 1235.4C449.806 1209.4 454.206 1192 467.406 1192C472.806 1192 485.406 1194.4 492.406 1220.4L504.006 1263.4C506.406 1272.4 510.006 1276 514.006 1276C520.806 1276 523.206 1268.2 525.806 1260.6L539.206 1220.4C547.806 1194.6 555.406 1192 561.206 1192C575.806 1192 581.006 1209.4 581.006 1235.4C581.006 1269 583.206 1301.4 579.406 1335H540.406C550.006 1289.8 565.006 1260 565.006 1236.2C565.006 1228 560.206 1225.4 558.206 1225.4C556.406 1225.4 553.806 1227.8 552.206 1233.8L541.606 1272.4C534.806 1297.2 531.806 1315 515.806 1315C509.806 1315 497.006 1313.8 492.206 1292.6L480.006 1238.2C478.006 1229.4 474.806 1225.4 471.606 1225.4C467.206 1225.4 465.806 1228 465.806 1236.2C465.806 1260 487.206 1290.2 497.206 1335ZM668.078 1335C626.678 1336 622.878 1322.4 622.878 1308.6C622.878 1294.4 629.078 1284.8 632.478 1274.4C613.078 1268.4 588.078 1233.2 588.078 1195H627.078V1197.8C627.078 1211.8 626.078 1259.2 638.678 1259.2H647.678C660.278 1259.2 659.278 1211.8 659.278 1197.8V1195H698.278C698.278 1233.6 672.678 1269.2 653.278 1274C653.278 1275.2 653.278 1276.8 653.278 1288.6C653.278 1295 654.078 1301 663.278 1301H664.478L668.078 1335ZM798.944 1338C762.944 1338 762.944 1276.6 762.944 1255C762.944 1234.4 759.144 1208.6 761.344 1195H800.344C798.144 1226.2 778.944 1220.8 778.944 1258C778.944 1278 786.144 1299 796.144 1299C801.944 1299 812.144 1291 812.144 1264L811.144 1235C810.744 1225 815.944 1195 839.544 1195C859.944 1195 858.744 1225 858.344 1235L857.344 1264C857.344 1291 868.744 1299 874.544 1299C884.744 1299 894.744 1278 894.744 1258C894.744 1220.8 877.344 1226.2 875.144 1195H914.144C916.344 1208.6 910.744 1234.4 910.744 1255C910.744 1276.6 906.544 1338 870.544 1338C853.944 1338 843.544 1306.2 841.144 1263.2V1251.4C841.144 1242.8 843.944 1234 837.944 1234C833.344 1234 828.344 1242.2 828.344 1251.4V1263.2C825.944 1306.2 815.544 1338 798.944 1338ZM926.75 1201.6C938.75 1195 958.95 1192 980.95 1192C1027.35 1192 1055.55 1224 1055.55 1258.8C1055.55 1308.2 1025.55 1338 984.95 1338C953.95 1338 935.35 1319 935.35 1288C935.35 1264.2 947.75 1244.6 961.35 1232.4C947.35 1234.2 936.15 1237 931.95 1239.4L926.75 1201.6ZM987.35 1231C971.55 1232.2 951.35 1258.6 951.35 1277.4C951.35 1293.2 968.35 1299 984.95 1299C1002.75 1299 1016.55 1285.6 1016.55 1269C1016.55 1250 1004.75 1232 987.35 1231ZM1062.49 1201.6C1072.49 1195 1089.89 1192 1108.49 1192C1147.69 1192 1171.69 1213.2 1171.69 1236.2C1171.69 1254.4 1160.69 1268.2 1144.49 1275.6C1164.29 1285.2 1181.29 1305.6 1181.29 1335H1142.29V1332.2C1142.29 1318.2 1139.29 1281.2 1118.29 1281.2C1115.29 1281.2 1113.89 1281.2 1107.89 1281.2C1111.09 1299 1115.29 1320 1115.29 1335H1076.29C1076.29 1307 1084.89 1277 1088.29 1255.8C1090.09 1244.4 1090.29 1238.8 1090.29 1233C1079.89 1234.6 1071.29 1237.2 1067.69 1239.4L1062.49 1201.6ZM1104.29 1254.8C1104.29 1258.6 1104.89 1263.4 1105.69 1269.2H1111.69C1123.69 1269.2 1132.69 1261.6 1132.69 1251C1132.69 1240 1126.69 1231 1113.09 1231C1110.09 1231 1107.29 1231.2 1104.29 1233.2C1104.29 1240.8 1104.29 1234.2 1104.29 1254.8ZM1195.15 1335C1195.15 1305.2 1219.55 1266.6 1219.55 1250.8C1219.55 1236.6 1207.35 1234.4 1198.15 1234.4H1196.95L1193.35 1195.6C1234.75 1194.6 1235.55 1225.4 1235.55 1235C1235.55 1243.2 1235.55 1251.2 1236.55 1259.2C1237.75 1259.2 1238.75 1259.2 1240.15 1259.2C1252.75 1259.2 1261.75 1211.8 1261.75 1197.8V1195H1292.75C1292.75 1223.6 1277.75 1250.6 1261.95 1264.8C1283.95 1276 1303.95 1303.2 1303.95 1335H1264.95V1332.2C1264.95 1318.2 1261.95 1275.2 1240.95 1275.2C1239.35 1275.2 1238.15 1275.2 1235.15 1275.2C1234.55 1294.8 1234.15 1314.4 1234.15 1335H1195.15Z" fill="white"/>
<path d="M-24.759 1233.33C189.22 1036.24 478.12 991.272 766.525 1110.16C837.21 1139.29 908.303 1177.99 978.318 1190.9C1048.33 1203.81 1119.35 1187.2 1158.85 1117.63C1247.26 961.824 1137.84 647.572 1200.97 461.958C1232.76 368.488 1303.17 325.482 1374.47 301.34C1445.72 277.206 1522.26 266.865 1584.59 219.14C1646.92 171.415 1693.87 74.298 1677.01 -45.0005" stroke="white" stroke-width="3" stroke-miterlimit="10"/>
</g>
<defs>
<clipPath id="clip0_512_1113">
<rect width="1769" height="1502" fill="white"/>
</clipPath>
</defs>
</svg>
