<?xml version="1.0" encoding="UTF-8"?>
<svg id="Layer_1" xmlns="http://www.w3.org/2000/svg" viewBox="0 0 600.72 523.12">
  <defs>
    <style>
      .cls-1 {
        fill: #fe5c2b;
      }

      .cls-2 {
        fill: #7974ef;
      }
    </style>
  </defs>
  <rect class="cls-2" width="600.72" height="523.12"/>
  <path class="cls-1" d="M199.61,118.62c-66.69,14.47-78.42,26.2-92.89,92.89-14.47-66.69-26.2-78.42-92.89-92.89,66.69-14.47,78.42-26.2,92.89-92.89,14.47,66.69,26.2,78.42,92.89,92.89Z"/>
  <path class="cls-1" d="M551.15,387.62c-66.69,14.47-78.42,26.2-92.89,92.89-14.47-66.69-26.2-78.42-92.89-92.89,66.69-14.47,78.42-26.2,92.89-92.89,14.47,66.69,26.2,78.42,92.89,92.89Z"/>
  <path d="M545.99,150.4c37.65,20.79,20.51,38.75-2.01,2.11-20.79,37.65-38.75,20.51-2.11-2.01-37.65-20.79-20.51-38.75,2.01-2.11,20.79-37.65,38.75-20.51,2.11,2.01Z"/>
  <polygon points="508.58 174.71 504.15 175.58 503.67 174.74 508.1 173.88 508.58 174.71"/>
  <polygon points="502.9 165.65 498.41 165.26 498.17 164.33 502.67 164.72 502.9 165.65"/>
  <polygon points="499.33 155.27 495.1 153.7 495.13 152.73 499.35 154.31 499.33 155.27"/>
  <polygon points="499.13 144.4 495.47 141.76 495.75 140.84 499.41 143.48 499.13 144.4"/>
  <polygon points="501.49 133.82 498.65 130.31 499.16 129.49 502 133 501.49 133.82"/>
  <polygon points="506.89 124.25 505.05 120.13 505.75 119.48 507.59 123.59 506.89 124.25"/>
  <polygon points="514.51 116.37 513.82 111.91 514.67 111.46 515.36 115.92 514.51 116.37"/>
  <polygon points="525.71 112.77 526.22 108.29 527.16 108.08 526.65 112.56 525.71 112.77"/>
  <polygon points="536.38 109.8 538.07 105.62 539.03 105.67 537.34 109.85 536.38 109.8"/>
  <polygon points="547.02 109.72 549.79 106.16 550.7 106.48 547.93 110.03 547.02 109.72"/>
  <polygon points="557.77 112.62 561.43 109.98 562.21 110.53 558.56 113.18 557.77 112.62"/>
  <path d="M141.28,430.59c0-4.03,3.02-6.71,7.55-6.71s7.55,2.68,7.55,6.71-3.02,6.71-7.55,6.71-7.55-2.68-7.55-6.71ZM141.28,403.75c0-4.03,3.02-6.71,7.55-6.71s7.55,2.68,7.55,6.71-3.02,6.71-7.55,6.71-7.55-2.68-7.55-6.71ZM112.49,404.5l4.87,13.84c1.34,3.78,3.86,4.95,5.45,4.95,1.34,0,3.78-1.09,3.78-4.03,0-6.88-10.66-22.99-10.66-41.95h16.36c0,14.1,1.01,27.69,1.01,41.78,0,10.91-1.09,18.21-8.81,18.21-2.94,0-10.4-.67-13-8.64l-5.71-17.45-5.45-17.12c-.92-2.77-3.19-4.03-4.78-4.03-1.93,0-3.78,1.09-3.78,4.53,0,9.98,10.66,22.49,10.66,41.45h-16.36c0-14.1-1.01-27.69-1.01-41.78,0-10.91.17-18.21,7.89-18.21,3.02,0,11.58.67,14.1,9.4l5.45,19.05h0ZM80.21,436.05c-17.37.42-18.96-4.7-18.96-14.43,0-8.05,4.87-14.43,4.87-21.14,0-5.71-4.03-6.88-7.89-6.88h-.5l-1.51-16.28c17.37-.42,17.79,12.75,17.79,16.78v22.49c0,2.68.34,5.2,4.19,5.2h.5l1.51,14.26ZM516.87,343.76c-19.55.92-28.53-10.24-28.53-31.97,0-14.6,8.56-26.76,23.16-26.76h15.02l-2.01,19.3c-1.76-1.59-5.87-2.94-12.58-2.94-5.87,0-14.35,2.43-17.37,7.72,9.31.08,20.3,2.6,25.59,2.6v9.65c-8.39,0-18.04-5.87-26.68-6.96,1.17,6.96,14.1,13.09,22.32,13.09,6.71,0,9.9-.67,13.51-1.76l.5,18.04h-12.93ZM462.9,345.02c-14.93,0-25.84-6.29-25.84-19.38,0-17.87,11.49-41.87,25.51-41.87,9.15,0,13.76,1.85,20.3,5.96l-8.81,12.84c-3.36-1.26-7.89-2.43-12.42-2.43-11.24,0-17.2,5.29-17.2,17.7,0,9.82,14.35,10.82,22.49,10.82,6.38,0,12.17-1.85,15.94-3.52l2.18,15.86c-5.71,3.36-16.28,4.03-22.15,4.03h0ZM408.35,312.21l4.87,13.84c1.34,3.78,3.86,4.95,5.45,4.95,1.34,0,3.78-1.09,3.78-4.03,0-6.88-10.66-22.99-10.66-41.95h16.36c0,14.1,1.01,27.69,1.01,41.78,0,10.91-1.09,18.21-8.81,18.21-2.94,0-10.4-.67-13-8.64l-5.71-17.45-5.45-17.12c-.92-2.77-3.19-4.03-4.78-4.03-1.93,0-3.78,1.09-3.78,4.53,0,9.98,10.66,22.49,10.66,41.45h-16.36c0-14.1-1.01-27.69-1.01-41.78,0-10.91.17-18.21,7.89-18.21,3.02,0,11.58.67,14.1,9.4l5.45,19.05h-.01ZM359.97,343.76c-19.55.92-28.53-10.24-28.53-31.97,0-14.6,8.56-26.76,23.16-26.76h15.02l-2.01,19.3c-1.76-1.59-5.87-2.94-12.58-2.94-5.87,0-14.35,2.43-17.37,7.72,9.31.08,20.3,2.6,25.59,2.6v9.65c-8.39,0-18.04-5.87-26.68-6.96,1.17,6.96,14.1,13.09,22.32,13.09,6.71,0,9.9-.67,13.51-1.76l.5,18.04h-12.93ZM329.53,343.76c-17.37.42-18.96-4.7-18.96-14.43,0-8.05,4.87-14.43,4.87-21.14,0-5.71-4.03-6.88-7.89-6.88h-.5l-1.51-16.28c17.37-.42,17.79,12.75,17.79,16.78v22.49c0,2.68.34,5.2,4.19,5.2h.5l1.51,14.26ZM269.01,310.11c0,1.59.25,3.61.59,6.04h2.52c5.03,0,8.81-3.19,8.81-7.63s-2.52-8.39-8.22-8.39c-1.26,0-2.43.08-3.69.92v9.06h0ZM251.48,287.8c4.19-2.77,11.49-4.03,19.3-4.03,16.44,0,26.51,8.89,26.51,18.54,0,7.63-4.61,13.42-11.41,16.53,8.31,4.03,15.44,12.58,15.44,24.92h-16.36v-1.17c0-5.87-1.26-21.39-10.07-21.39h-4.36c1.34,7.47,3.1,16.28,3.1,22.57h-16.36c0-11.75,3.61-24.33,5.03-33.22.76-4.78.84-7.13.84-9.56-4.36.67-7.97,1.76-9.48,2.68l-2.18-15.86h0ZM236.66,343.76c-19.55.92-28.53-10.24-28.53-31.97,0-14.6,8.56-26.76,23.16-26.76h15.02l-2.01,19.3c-1.76-1.59-5.87-2.94-12.58-2.94-5.87,0-14.35,2.43-17.37,7.72,9.31.08,20.3,2.6,25.59,2.6v9.65c-8.39,0-18.04-5.87-26.68-6.96,1.17,6.96,14.1,13.09,22.32,13.09,6.71,0,9.9-.67,13.51-1.76l.5,18.04h-12.93ZM174.87,310.11c0,1.59.25,3.61.59,6.04h2.52c5.03,0,8.81-3.19,8.81-7.63s-2.52-8.39-8.22-8.39c-1.26,0-2.43.08-3.69.92v9.06h0ZM157.34,287.8c4.19-2.77,11.49-4.03,19.3-4.03,16.44,0,26.51,8.89,26.51,18.54,0,11.41-10.49,18.88-22.99,18.88h-3.78c1.34,7.47,3.1,16.28,3.1,22.57h-16.36c0-11.75,3.61-24.33,5.03-33.22.76-4.78.84-7.13.84-9.56-4.36.67-7.97,1.76-9.48,2.68l-2.18-15.86h0ZM127.5,318.67c-8.81,0-7.55,18.04-7.55,23.91v1.17h-16.36c0-13.26,6.96-24.67,15.35-29.36-6.38-5.96-12.33-17.28-12.33-29.36h13v1.17c0,5.87,2.94,25.76,8.22,25.76h3.78c5.29,0,8.22-19.88,8.22-25.76v-1.17h13c0,12.08-5.96,23.41-12.33,29.36,8.39,4.7,15.35,16.11,15.35,29.36h-16.36v-1.17c0-5.87,1.26-23.91-7.55-23.91h-4.45,0ZM85.49,343.76c-19.55.92-28.53-10.24-28.53-31.97,0-14.6,8.56-26.76,23.16-26.76h15.02l-2.01,19.3c-1.76-1.59-5.87-2.94-12.58-2.94-5.87,0-14.35,2.43-17.37,7.72,9.31.08,20.3,2.6,25.59,2.6v9.65c-8.39,0-18.04-5.87-26.68-6.96,1.17,6.96,14.1,13.09,22.32,13.09,6.71,0,9.9-.67,13.51-1.76l.5,18.04h-12.93ZM116.04,251.47c.08-1.51,5.03-26.26,5.03-38.76,0-14.6,4.28-19.97,18.88-19.97h13.34l-2.01,19.3c-1.85-1.59-4.36-2.94-13.51-2.94-6.29,0-9.98.84-9.98,5.37,0,.76,0,1.51.08,2.35,8.47-.17,13.51,2.6,19.05,2.6v9.65c-8.14,0-11.41-5.54-18.54-6.88,1.26,9.73,4.03,22.4,4.03,29.28h-16.37ZM82.47,207.84c-6.63.5-15.1,11.58-15.1,19.46,0,6.63,7.13,9.06,14.1,9.06,7.47,0,13.26-5.62,13.26-12.58,0-7.97-4.95-15.52-12.25-15.94h0ZM57.05,195.51c5.03-2.77,13.51-4.03,22.74-4.03,19.46,0,31.29,13.42,31.29,28.02,0,20.72-12.58,33.22-29.62,33.22-13,0-20.81-7.97-20.81-20.97,0-9.98,5.2-18.21,10.91-23.32-5.87.76-10.57,1.93-12.33,2.94,0,0-2.18-15.86-2.18-15.86ZM355.67,160.44c-8.05,0-15.52-1.26-19.97-4.03l2.18-15.86c2.27,1.59,10.07,3.52,18.21,3.52,5.96,0,10.82-1.26,10.82-5.29s-4.45-5.29-9.23-5.29c-8.14,0-20.56-4.11-20.56-17.79,0-11.07,9.73-16.61,21.65-16.61,7.97,0,16.61,1.85,22.23,5.96l-8.81,12.84c-3.94-1.51-9.9-2.43-17.12-2.43-6.8,0-11.24,2.01-11.24,5.45,0,4.28,5.87,5.87,14.51,5.87,10.66,0,24.92,1.76,24.92,14.68,0,12.25-10.91,18.96-27.6,18.96v.02ZM315.6,104.06c0-4.03,3.02-6.71,7.55-6.71s7.55,2.68,7.55,6.71c0,8.89-2.77,20.72-15.1,20.72h-2.27l1.51-9.31h1.76c1.93,0,3.69-2.18,5.03-4.78-3.69-.5-6.04-3.02-6.04-6.63h.01ZM275.98,125.53c0,1.59.25,3.61.59,6.04h2.52c5.03,0,8.81-3.19,8.81-7.63s-2.52-8.39-8.22-8.39c-1.26,0-2.43.08-3.69.92v9.06h0ZM258.44,103.22c4.19-2.77,11.49-4.03,19.3-4.03,16.44,0,26.51,8.89,26.51,18.54,0,7.63-4.61,13.42-11.41,16.53,8.31,4.03,15.44,12.58,15.44,24.92h-16.36v-1.17c0-5.87-1.26-21.39-10.07-21.39h-4.36c1.34,7.47,3.1,16.28,3.1,22.57h-16.36c0-11.75,3.61-24.33,5.03-33.22.76-4.78.84-7.13.84-9.56-4.36.67-7.97,1.76-9.48,2.68l-2.18-15.86h0ZM222.41,133.08h24.25c0-9.06-3.61-17.62-14.01-17.62-8.14,0-10.4,7.3-10.4,13.68,0,1.43.08,2.68.17,3.94h-.01ZM232.06,159.18h-16.28c-1.43-7.55-1.43-19.38-.25-29.78,1.51-13,6.46-30.29,22.49-30.29,15.19,0,15.35,25.34,15.35,34.4s-1.17,19.97-2.1,25.67h-16.36c.76-11.16,8.73-11.49,11.07-21.06h-22.9c2.1,10.49,7.55,14.77,8.98,21.06h0ZM196.43,159.18c-19.55.92-28.53-10.24-28.53-31.97,0-14.6,8.56-26.76,23.16-26.76h15.02l-2.01,19.3c-1.76-1.59-5.87-2.94-12.58-2.94-5.87,0-14.35,2.43-17.37,7.72,9.31.08,20.3,2.6,25.59,2.6v9.65c-8.39,0-18.04-5.87-26.68-6.96,1.17,6.96,14.1,13.09,22.32,13.09,6.71,0,9.9-.67,13.51-1.76l.5,18.04h-12.93ZM154.35,159.18c-17.37.42-18.96-5.29-18.96-11.07s2.6-9.98,4.03-14.35c-8.14-2.52-18.63-17.28-18.63-33.31h16.36v1.17c0,5.87-.42,25.76,4.87,25.76h3.78c5.29,0,4.87-19.88,4.87-25.76v-1.17h16.36c0,16.19-10.74,31.13-18.88,33.14v6.12c0,2.68.34,5.2,4.19,5.2h.5l1.51,14.26h0ZM80.04,159.18h-16.36c0-11.49,4.78-23.91,10.24-29.87l12.08-13.17c-6.38-.34-11.24-.5-16.61-.5-3.61,0-7.55.08-12.33.34v-15.52c7.13.42,12.17.59,17.37.59,5.79,0,11.66-.25,20.39-.67v16.28l-11.75,12.67c-5.62,6.12-3.02,18.37-3.02,29.87v-.02Z"/>
</svg>