<?xml version="1.0" encoding="UTF-8"?>
<svg id="Layer_1" xmlns="http://www.w3.org/2000/svg" viewBox="0 0 705 326.16">
  <defs>
    <style>
      .cls-1 {
        fill: #fe5c2b;
      }

      .cls-2 {
        fill: none;
        stroke: #000;
        stroke-miterlimit: 10;
      }
    </style>
  </defs>
  <path class="cls-1" d="M288.36,159.03c-32.25,7-37.93,12.67-44.93,44.93-7-32.25-12.67-37.93-44.93-44.93,32.25-7,37.93-12.67,44.93-44.93,7,32.25,12.67,37.93,44.93,44.93Z"/>
  <path class="cls-2" d="M711.62,113.77c15.04,15.77,21.84,39.59,17.26,60.51-4.57,20.93-20.36,38.21-40.09,43.91-31.71,9.16-65.99-10.73-91.2-34.94s-46.4-53.82-75.82-71.86c-40.67-24.93-94.09-22.44-130.08,5.77-36,28.22-52.64,80.43-41.01,127.7,3.36,13.65,10.55,28.49,23.5,32.44,15.95,4.88,31.54-11.86,30.59-29.04-.95-17.18-14.08-32.1-29.05-39.93-23.64-12.35-51.38-10.4-75.88-2.84-24.49,7.56-47.03,20.23-71.1,28.97C154.88,261.27,67.07,247.82.11,199.45"/>
</svg>