<svg width="595" height="517" viewBox="0 0 595 517" fill="none" xmlns="http://www.w3.org/2000/svg">
<path d="M562.364 33H41V487.009H562.364V33Z" fill="#DAE5E8"/>
<path d="M213.925 135.948C156.047 148.505 145.867 158.684 133.31 216.562C120.753 158.684 110.573 148.505 52.6953 135.948C110.573 123.39 120.753 113.211 133.31 55.3328C145.867 113.211 156.047 123.39 213.925 135.948Z" fill="#FE5C2B"/>
<path d="M519.37 369.407C461.492 381.965 451.313 392.144 438.756 450.022C426.198 392.144 416.019 381.965 358.141 369.407C416.019 356.85 426.198 346.67 438.756 288.792C451.313 346.67 461.492 356.85 519.37 369.407Z" fill="#FE5C2B"/>
<path d="M484.102 110.944C531.614 135.022 509.986 155.835 481.561 113.388C455.333 157.006 432.662 137.151 478.898 111.056C431.386 86.9777 453.014 66.1651 481.439 108.612C507.667 64.994 530.338 84.8493 484.102 110.944Z" fill="black"/>
<path d="M432.519 130.566L421.63 132.329L420.397 130.396L431.285 128.633L432.519 130.566Z" fill="black"/>
<path d="M425.431 121.653L414.582 120.535L413.969 118.326L424.817 119.444L425.431 121.653Z" fill="black"/>
<path d="M421.473 111.2L411.405 107.468L411.467 105.176L421.534 108.908L421.473 111.2Z" fill="black"/>
<path d="M420.929 100.177L412.226 94.1729L412.947 91.9964L421.65 98.0001L420.929 100.177Z" fill="black"/>
<path d="M423.75 89.4819L416.888 81.5893L418.186 79.6993L425.048 87.592L423.75 89.4819Z" fill="black"/>
<path d="M429.626 79.8936L424.998 70.5513L426.746 69.0668L431.373 78.4091L429.626 79.8936Z" fill="black"/>
<path d="M437.905 72.08L435.941 61.7839L438.007 60.7907L439.971 71.0868L437.905 72.08Z" fill="black"/>
<path d="M448.006 66.4644L449.018 55.8986L451.265 55.4438L450.254 66.0096L448.006 66.4644Z" fill="black"/>
<path d="M459.286 63.2928L463.372 53.3103L465.663 53.4181L461.576 63.4005L459.286 63.2928Z" fill="black"/>
<path d="M471.073 62.7381L478.015 54.27L480.204 54.9499L473.262 63.418L471.073 62.7381Z" fill="black"/>
<path d="M482.682 65.0242L491.859 58.864L493.794 60.0937L484.617 66.2539L482.682 65.0242Z" fill="black"/>
<path d="M140.8 251.5C131.2 251.5 122.3 250 117 246.7L119.6 227.8C122.3 229.7 131.6 232 141.3 232C148.4 232 154.2 230.5 154.2 225.7C154.2 220.9 148.9 219.4 143.2 219.4C133.5 219.4 118.7 214.5 118.7 198.2C118.7 185 130.3 178.4 144.5 178.4C154 178.4 164.3 180.6 171 185.5L160.5 200.8C155.8 199 148.7 197.9 140.1 197.9C132 197.9 126.7 200.3 126.7 204.4C126.7 209.5 133.7 211.4 144 211.4C156.7 211.4 173.7 213.5 173.7 228.9C173.7 243.5 160.7 251.5 140.8 251.5ZM210.395 251.5C192.595 251.5 179.595 244 179.595 228.4C179.595 207.1 193.295 178.5 209.995 178.5C220.895 178.5 226.395 180.7 234.195 185.6L223.695 200.9C219.695 199.4 214.295 198 208.895 198C195.495 198 188.395 204.3 188.395 219.1C188.395 230.8 205.495 232 215.195 232C222.795 232 229.695 229.8 234.195 227.8L236.795 246.7C229.995 250.7 217.395 251.5 210.395 251.5ZM239.363 183.3C244.363 180 253.063 178.5 262.363 178.5C281.963 178.5 293.963 189.1 293.963 200.6C293.963 209.7 288.463 216.6 280.363 220.3C290.263 225.1 298.763 235.3 298.763 250H279.263V248.6C279.263 241.6 277.763 223.1 267.263 223.1C265.763 223.1 265.063 223.1 262.063 223.1C263.663 232 265.763 242.5 265.763 250H246.263C246.263 236 250.563 221 252.263 210.4C253.163 204.7 253.263 201.9 253.263 199C248.063 199.8 243.763 201.1 241.963 202.2L239.363 183.3ZM260.263 209.9C260.263 211.8 260.563 214.2 260.963 217.1H263.963C269.963 217.1 274.463 213.3 274.463 208C274.463 202.5 271.463 198 264.663 198C263.163 198 261.763 198.1 260.263 199.1C260.263 202.9 260.263 199.6 260.263 209.9ZM304.793 183.3C310.793 180 320.893 178.5 331.893 178.5C355.093 178.5 369.193 194.5 369.193 211.9C369.193 236.6 354.193 251.5 333.893 251.5C318.393 251.5 309.093 242 309.093 226.5C309.093 214.6 315.293 204.8 322.093 198.7C315.093 199.6 309.493 201 307.393 202.2L304.793 183.3ZM335.093 198C327.193 198.6 317.093 211.8 317.093 221.2C317.093 229.1 325.593 232 333.893 232C342.793 232 349.693 225.3 349.693 217C349.693 207.5 343.793 198.5 335.093 198ZM402.803 250C382.103 250 380.203 245 380.203 234.6C380.203 225.4 386.003 218 386.003 210.4C386.003 203.8 381.203 202.4 376.603 202.4H376.003L374.203 180C394.903 179.5 395.403 195.2 395.403 200C395.403 210.4 395.403 215.3 395.403 226.8C395.403 230 396.403 230.6 401.003 230.6C409.003 230.6 413.303 229.8 417.603 228.5L418.203 250H402.803ZM445.967 250C425.267 250 423.367 245 423.367 234.6C423.367 225.4 429.167 218 429.167 210.4C429.167 203.8 424.367 202.4 419.767 202.4H419.167L417.367 180C438.067 179.5 438.567 195.2 438.567 200C438.567 210.4 438.567 215.3 438.567 226.8C438.567 230 439.567 230.6 444.167 230.6C452.167 230.6 456.467 229.8 460.767 228.5L461.367 250H445.967ZM117 293.3C122.8 290 132.7 288.5 143.3 288.5C165.7 288.5 179.4 304.5 179.4 321.9C179.4 346.6 150.8 361.5 130.1 361.5C124.7 361.5 119.1 360.5 116.3 356.9C119.3 347.2 129.9 321.4 133.8 308.7C127.1 309.5 121.6 311 119.6 312.2L117 293.3ZM140.4 308.1C137.3 316.3 134.1 329.9 132.1 342C143.7 340.8 159.9 333.3 159.9 323C159.9 313.2 153.8 308 145.2 308C143.6 308 142 308 140.4 308.1ZM185.359 293.3C191.359 290 201.459 288.5 212.459 288.5C235.659 288.5 249.759 304.5 249.759 321.9C249.759 346.6 234.759 361.5 214.459 361.5C198.959 361.5 189.659 352 189.659 336.5C189.659 324.6 195.859 314.8 202.659 308.7C195.659 309.6 190.059 311 187.959 312.2L185.359 293.3ZM215.659 308C207.759 308.6 197.659 321.8 197.659 331.2C197.659 339.1 206.159 342 214.459 342C223.359 342 230.259 335.3 230.259 327C230.259 317.5 224.359 308.5 215.659 308ZM275.07 361.5C257.07 361.5 257.07 330.8 257.07 320C257.07 309.7 255.17 296.8 256.27 290H275.77C274.67 305.6 265.07 302.9 265.07 321.5C265.07 331.5 268.67 342 273.67 342C276.57 342 281.67 338 281.67 324.5L281.17 310C280.97 305 283.57 290 295.37 290C305.57 290 304.97 305 304.77 310L304.27 324.5C304.27 338 309.97 342 312.87 342C317.97 342 322.97 331.5 322.97 321.5C322.97 302.9 314.27 305.6 313.17 290H332.67C333.77 296.8 330.97 309.7 330.97 320C330.97 330.8 328.87 361.5 310.87 361.5C302.57 361.5 297.37 345.6 296.17 324.1V318.2C296.17 313.9 297.57 309.5 294.57 309.5C292.27 309.5 289.77 313.6 289.77 318.2V324.1C288.57 345.6 283.37 361.5 275.07 361.5ZM375.073 322.4L380.873 338.9C382.473 343.4 385.473 344.8 387.373 344.8C388.973 344.8 391.873 343.5 391.873 340C391.873 331.8 379.173 312.6 379.173 290H398.673C398.673 306.8 399.873 323 399.873 339.8C399.873 352.8 398.573 361.5 389.373 361.5C385.873 361.5 376.973 360.7 373.873 351.2L367.073 330.4L360.573 310C359.473 306.7 356.773 305.2 354.873 305.2C352.573 305.2 350.373 306.5 350.373 310.6C350.373 322.5 363.073 337.4 363.073 360H343.573C343.573 343.2 342.373 327 342.373 310.2C342.373 297.2 342.573 288.5 351.773 288.5C355.373 288.5 365.573 289.3 368.573 299.7L375.073 322.4Z" fill="black"/>
</svg>
